<svg xmlns="http://www.w3.org/2000/svg" width="500" height="500" viewBox="0 0 375 374.999991"><defs><clipPath id="2beb238978"><path d="M 150 162.191406 L 187.355469 162.191406 L 187.355469 194 L 150 194 Z M 150 162.191406"/></clipPath></defs><path fill="#e2a9f1" d="M 336.671875 133.1875 C 329.273438 108.585938 311.785156 86.796875 288.8125 75.386719 C 236.570312 49.933594 169.882812 73.640625 121.953125 100.773438 C 90.542969 119.03125 55.105469 144.609375 41.191406 177.085938 C 34.601562 191.945312 31.640625 207.996094 30.890625 224.289062 C 29.839844 253.738281 34.808594 300.003906 61.382812 316.339844 C 76.53125 325.070312 94.039062 321.074219 111.066406 315.714844 C 124.988281 311.210938 139.960938 305.308594 154.527344 300.4375 C 165.117188 296.84375 176.027344 293.449219 186.8125 290.367188 C 221.226562 280.113281 259.523438 273.855469 288.496094 254.597656 C 303.910156 244.359375 316.621094 230.492188 326.144531 214.53125 C 340.875 190.601562 345.125 159.867188 336.699219 133.273438 Z M 336.671875 133.1875"/><path fill="#5e17eb" fill-rule="evenodd" d="M 142.082031 190.417969 C 140.976562 190.320312 130.222656 184.875 110.960938 212.394531 C 110.757812 212.6875 104.039062 217.121094 117.261719 230.769531 C 134 248.054688 161.132812 239.613281 163.394531 234.929688 C 164.347656 232.949219 171.871094 210.183594 167.855469 203.953125 C 163.207031 196.742188 155.503906 194.589844 154.207031 194.230469 C 153.84375 194.128906 153.867188 194.140625 149.632812 193.035156"/><path fill="#ededed" fill-rule="evenodd" d="M 108.433594 217.695312 C 106.566406 220.679688 106.402344 220.558594 105.234375 223.207031 C 103.445312 227.242188 92.882812 257.941406 106.898438 270.105469 C 116.503906 278.433594 123.5 282.957031 139.648438 275.671875 C 154.675781 268.886719 163.117188 238.058594 164.003906 234.382812 C 160.457031 237.742188 159.492188 238.621094 146.28125 240.75 C 133.15625 242.859375 112.828125 233.25 108.433594 217.695312 Z M 108.433594 217.695312"/><path fill="#fff" d="M125.469 280.059C123.324 280.07 121.215 279.816 119.137 279.301 111.578 277.398 105.68 272.043 101.594 263.383 101.504 263.195 101.496 263 101.566 262.805 101.637 262.605 101.77 262.465 101.957 262.375 102.145 262.285 102.34 262.277 102.535 262.348 102.734 262.418 102.875 262.547 102.965 262.734 106.848 270.965 112.414 276.043 119.508 277.832 130.273 280.547 141.078 274.863 143.18 273.309 159.566 261.191 168.832 212.531 168.828 210.359 168.801 195.75 141.348 190.988 135.852 190.184L135.66 190.156C135.453 190.125 135.285 190.023 135.16 189.855 135.035 189.684 134.992 189.492 135.023 189.285 135.059 189.078 135.16 188.914 135.328 188.789 135.5 188.664 135.688 188.621 135.895 188.652L136.078 188.676C144.105 189.859 170.313 194.906 170.344 210.355 170.344 212.57 160.859 262.121 144.082 274.531 142.281 275.859 134.43 280.059 125.469 280.059ZM101.223 260.824C101.035 260.824 100.871 260.762 100.73 260.641 100.59 260.516 100.504 260.363 100.477 260.18 100.434 259.898 100.348 259.484 100.238 258.961 99.473 255.246 97.438 245.375 100.586 234.672 107.863 209.922 120.578 199.125 128.172 192.672 128.762 192.172 129.32 191.695 129.852 191.238 130.008 191.09 130.195 191.023 130.41 191.035 130.625 191.043 130.805 191.133 130.945 191.293 131.086 191.457 131.145 191.645 131.125 191.859 131.105 192.074 131.012 192.25 130.844 192.383 130.309 192.848 129.746 193.324 129.156 193.824 121.203 200.582 109.191 210.793 102.039 235.094 99 245.43 100.977 255.035 101.723 258.648 101.84 259.211 101.93 259.648 101.973 259.949 102.008 260.16 101.961 260.348 101.84 260.52 101.715 260.688 101.547 260.789 101.34 260.82 101.301 260.824 101.262 260.824 101.223 260.824ZM132.656 192.055C132.492 192.055 132.344 192.008 132.211 191.91 132.078 191.813 131.988 191.688 131.938 191.531L131.484 190.188C131.41 189.988 131.422 189.793 131.516 189.602 131.605 189.41 131.754 189.281 131.953 189.215 132.156 189.145 132.352 189.16 132.539 189.254 132.73 189.352 132.855 189.5 132.922 189.703L133.375 191.047C133.441 191.246 133.43 191.438 133.336 191.625 133.242 191.813 133.098 191.941 132.898 192.008 132.82 192.039 132.738 192.055 132.656 192.055ZM132.656 192.055"/><path fill="#fff" d="M134.426 191.199C134.262 191.199 134.113 191.152 133.98 191.055 133.848 190.961 133.758 190.832 133.703 190.676L133.422 189.789C133.359 189.59 133.375 189.395 133.473 189.211 133.566 189.023 133.715 188.898 133.914 188.836 134.113 188.77 134.309 188.785 134.496 188.883 134.68 188.977 134.805 189.125 134.867 189.328L135.148 190.219C135.211 190.418 135.195 190.609 135.102 190.797 135.004 190.98 134.855 191.105 134.656 191.168 134.582 191.191 134.504 191.203 134.426 191.199ZM101.422 262.59C101.25 262.59 101.094 262.535 100.957 262.426 100.82 262.32 100.734 262.18 100.691 262.012 100.652 261.844 100.668 261.68 100.738 261.523 100.809 261.363 100.922 261.246 101.074 261.164L101.895 260.727C102.078 260.629 102.27 260.609 102.469 260.672 102.672 260.734 102.82 260.855 102.918 261.039 103.016 261.227 103.035 261.418 102.973 261.617 102.914 261.816 102.789 261.969 102.605 262.066L101.785 262.504C101.672 262.563 101.551 262.594 101.422 262.59ZM140.52 218.875C139.434 218.875 138.41 218.355 137.469 217.336 134.031 213.602 139.168 206.691 141.93 202.977 142.32 202.457 142.664 201.992 142.922 201.621 143.043 201.449 143.207 201.344 143.41 201.309 143.617 201.27 143.809 201.313 143.98 201.434 144.152 201.555 144.254 201.715 144.293 201.922 144.328 202.129 144.285 202.316 144.164 202.488 143.902 202.871 143.551 203.344 143.148 203.883 140.824 207 135.996 213.496 138.582 216.313 139.293 217.082 139.973 217.434 140.719 217.355 142.016 217.223 143.328 215.754 144.137 214.422 144.754 213.395 145.355 212.457 145.898 211.594 147.758 208.672 149.094 206.551 148.637 205.023 148.297 203.891 146.934 202.816 144.34 201.648 144.152 201.559 144.02 201.418 143.949 201.223 143.879 201.031 143.883 200.84 143.969 200.648 144.055 200.461 144.191 200.328 144.387 200.254 144.578 200.18 144.77 200.184 144.961 200.266 148.027 201.656 149.609 202.984 150.09 204.59 150.746 206.785 149.25 209.145 147.18 212.406 146.637 213.262 146.047 214.188 145.438 215.203 144.832 216.219 143.141 218.633 140.871 218.855 140.754 218.867 140.637 218.875 140.52 218.875ZM140.52 218.875"/><path fill="#fff" d="M141.176 215.848C141.012 215.848 140.867 215.801 140.738 215.707L140.344 215.434C139.75 215.039 139.203 214.586 138.707 214.07 138.574 213.926 138.508 213.75 138.512 213.551 138.516 213.352 138.586 213.18 138.727 213.039 138.863 212.895 139.031 212.816 139.23 212.809 139.43 212.797 139.605 212.855 139.758 212.984 140.195 213.441 140.68 213.844 141.211 214.191L141.605 214.469C141.742 214.566 141.836 214.691 141.891 214.848 141.941 215.004 141.945 215.16 141.895 215.32 141.844 215.477 141.75 215.602 141.617 215.699 141.484 215.797 141.336 215.848 141.172 215.848ZM142.879 213.039C142.715 213.039 142.566 212.992 142.434 212.898 141.672 212.387 140.969 211.801 140.332 211.141L140.172 210.984C140.02 210.84 139.945 210.66 139.941 210.449 139.938 210.242 140.012 210.063 140.156 209.91 140.301 209.762 140.48 209.684 140.691 209.684 140.898 209.68 141.078 209.75 141.23 209.898L141.391 210.055C141.973 210.664 142.617 211.199 143.32 211.66 143.453 211.758 143.547 211.883 143.598 212.039 143.648 212.195 143.648 212.352 143.598 212.508 143.547 212.664 143.457 212.789 143.324 212.887 143.191 212.984 143.043 213.031 142.879 213.035ZM144.508 210.289C144.387 210.293 144.27 210.266 144.16 210.207L143.945 210.098C142.844 209.531 142.734 209.469 141.645 208.652 141.477 208.523 141.379 208.355 141.348 208.148 141.32 207.941 141.367 207.754 141.492 207.586 141.621 207.422 141.789 207.324 141.996 207.297 142.203 207.266 142.391 207.313 142.559 207.438 143.57 208.203 143.59 208.211 144.645 208.75L144.855 208.859C145.012 208.938 145.129 209.059 145.203 209.219 145.273 209.379 145.289 209.543 145.25 209.711 145.207 209.883 145.117 210.023 144.98 210.129 144.84 210.238 144.684 210.293 144.508 210.289ZM146.367 207.184C146.254 207.184 146.145 207.16 146.043 207.109 145.34 206.793 144.656 206.434 143.992 206.039L143.699 205.863C143.516 205.758 143.398 205.605 143.344 205.402 143.293 205.199 143.316 205.008 143.422 204.828 143.527 204.648 143.68 204.527 143.883 204.477 144.086 204.422 144.277 204.445 144.457 204.551L144.754 204.723C145.379 205.102 146.023 205.445 146.691 205.746 146.848 205.824 146.969 205.941 147.043 206.102 147.121 206.262 147.141 206.426 147.102 206.598 147.063 206.77 146.973 206.91 146.836 207.023 146.699 207.133 146.543 207.188 146.363 207.188ZM142.426 242.234C138.852 242.238 135.367 241.699 131.965 240.613 124.023 238.09 113.453 232.164 108.223 218.27L108.047 217.824C107.961 217.629 107.961 217.434 108.039 217.234 108.121 217.035 108.262 216.895 108.461 216.816 108.66 216.734 108.855 216.738 109.055 216.828 109.25 216.914 109.383 217.059 109.457 217.262L109.629 217.738C114.645 231.066 124.785 236.746 132.418 239.168 142.797 242.465 151.25 239.813 156.848 238.059 158.031 237.688 159.066 237.363 159.949 237.152 160.148 237.113 160.332 237.148 160.504 237.258 160.672 237.367 160.781 237.523 160.828 237.719 160.875 237.918 160.848 238.102 160.742 238.277 160.641 238.453 160.492 238.566 160.297 238.621 159.441 238.828 158.438 239.145 157.293 239.504 153.746 240.621 148.602 242.234 142.426 242.234ZM142.426 242.234"/><path fill="#fff" d="M161.535 238.344C161.375 238.344 161.23 238.297 161.098 238.203 160.969 238.113 160.875 237.992 160.82 237.84L160.633 237.289C160.559 237.094 160.566 236.898 160.656 236.711 160.742 236.52 160.887 236.387 161.082 236.316 161.281 236.242 161.473 236.25 161.664 236.34 161.855 236.43 161.984 236.57 162.059 236.77L162.254 237.32C162.328 237.52 162.316 237.711 162.23 237.898 162.141 238.09 161.996 238.219 161.801 238.289 161.715 238.324 161.625 238.34 161.535 238.344ZM127.352 238.266C127.059 238.266 126.84 238.137 126.695 237.883 126.551 237.629 126.551 237.379 126.699 237.125 128.035 234.84 129.066 233.098 129.934 231.637 132.734 226.914 133.785 225.145 137.68 217.387 137.773 217.199 137.922 217.07 138.121 217.008 138.32 216.941 138.512 216.953 138.699 217.047 138.887 217.141 139.012 217.289 139.078 217.488 139.145 217.688 139.129 217.879 139.035 218.066 135.117 225.871 134.059 227.652 131.238 232.414 130.367 233.867 129.34 235.609 128.008 237.887 127.863 238.141 127.645 238.266 127.352 238.266ZM147.516 202.945C147.379 202.949 147.254 202.914 147.137 202.844 146.953 202.738 146.832 202.582 146.781 202.379 146.727 202.176 146.754 201.98 146.863 201.801L151.711 193.461C151.816 193.289 151.973 193.176 152.172 193.125 152.371 193.078 152.559 193.105 152.734 193.207 152.914 193.313 153.027 193.461 153.082 193.66 153.141 193.855 153.117 194.047 153.02 194.227L148.172 202.563C148.027 202.816 147.809 202.945 147.516 202.945ZM147.516 202.945"/><g clip-path="url(#2beb238978)"><path fill="#fff" d="M 151.429688 193.289062 L 151.394531 193.289062 C 151.183594 193.28125 151.007812 193.199219 150.867188 193.042969 C 150.726562 192.886719 150.664062 192.707031 150.671875 192.5 C 151.390625 177.304688 162.589844 176.851562 170.765625 176.523438 C 172.542969 176.453125 174.222656 176.386719 175.65625 176.175781 C 179.011719 175.699219 181.617188 174.226562 183.402344 171.808594 C 184.308594 170.554688 184.945312 169.179688 185.320312 167.679688 C 185.691406 166.179688 185.769531 164.664062 185.558594 163.132812 C 185.523438 162.925781 185.566406 162.734375 185.691406 162.566406 C 185.816406 162.394531 185.980469 162.292969 186.1875 162.261719 C 186.394531 162.230469 186.582031 162.277344 186.753906 162.398438 C 186.921875 162.523438 187.023438 162.6875 187.058594 162.894531 C 187.464844 165.488281 187.042969 169.429688 184.621094 172.703125 C 182.617188 175.425781 179.589844 177.144531 175.867188 177.679688 C 174.363281 177.894531 172.644531 177.964844 170.824219 178.035156 C 162.394531 178.382812 152.835938 178.765625 152.183594 192.566406 C 152.175781 192.769531 152.097656 192.941406 151.953125 193.078125 C 151.804688 193.21875 151.632812 193.289062 151.429688 193.289062 Z M 151.429688 193.289062"/></g><path fill="#5e17eb" d="M 10.6875 0 C 9.050781 0 7.734375 -0.128906 6.734375 -0.390625 C 5.734375 -0.660156 4.960938 -1.035156 4.421875 -1.515625 C 3.878906 -2.003906 3.507812 -2.597656 3.3125 -3.296875 C 3.125 -4.003906 2.988281 -4.796875 2.90625 -5.671875 C 2.8125 -6.703125 2.742188 -8.0625 2.703125 -9.75 C 2.660156 -11.4375 2.640625 -13.1875 2.640625 -15 C 2.640625 -15.882812 2.644531 -16.816406 2.65625 -17.796875 C 2.675781 -18.773438 2.691406 -19.738281 2.703125 -20.6875 C 2.722656 -21.644531 2.742188 -22.535156 2.765625 -23.359375 C 2.796875 -24.179688 2.84375 -24.882812 2.90625 -25.46875 C 2.988281 -26.382812 3.132812 -27.207031 3.34375 -27.9375 C 3.550781 -28.675781 3.941406 -29.304688 4.515625 -29.828125 C 5.085938 -30.359375 5.890625 -30.757812 6.921875 -31.03125 C 7.960938 -31.3125 9.351562 -31.453125 11.09375 -31.453125 C 15.019531 -31.453125 17.957031 -30.726562 19.90625 -29.28125 C 21.863281 -27.832031 22.84375 -25.769531 22.84375 -23.09375 C 22.84375 -21.71875 22.539062 -20.441406 21.9375 -19.265625 C 21.332031 -18.097656 20.296875 -17.21875 18.828125 -16.625 C 19.648438 -16.476562 20.398438 -16.171875 21.078125 -15.703125 C 21.753906 -15.234375 22.332031 -14.671875 22.8125 -14.015625 C 23.300781 -13.359375 23.664062 -12.625 23.90625 -11.8125 C 24.15625 -11.007812 24.28125 -10.195312 24.28125 -9.375 C 24.28125 -8.3125 24.0625 -7.226562 23.625 -6.125 C 23.1875 -5.03125 22.4375 -4.03125 21.375 -3.125 C 20.320312 -2.21875 18.921875 -1.46875 17.171875 -0.875 C 15.429688 -0.289062 13.269531 0 10.6875 0 Z M 19.890625 -9.5 C 19.890625 -10.5625 19.644531 -11.414062 19.15625 -12.0625 C 18.675781 -12.707031 18.050781 -13.195312 17.28125 -13.53125 C 16.519531 -13.863281 15.671875 -14.085938 14.734375 -14.203125 C 13.796875 -14.328125 12.859375 -14.390625 11.921875 -14.390625 C 11.191406 -14.390625 10.429688 -14.390625 9.640625 -14.390625 C 8.847656 -14.390625 8.113281 -14.375 7.4375 -14.34375 C 7.40625 -13.726562 7.375 -13.097656 7.34375 -12.453125 C 7.3125 -11.804688 7.289062 -11.195312 7.28125 -10.625 C 7.269531 -10.050781 7.265625 -9.550781 7.265625 -9.125 C 7.265625 -8.695312 7.265625 -8.398438 7.265625 -8.234375 C 7.265625 -7.441406 7.320312 -6.78125 7.4375 -6.25 C 7.550781 -5.71875 7.769531 -5.289062 8.09375 -4.96875 C 8.414062 -4.644531 8.878906 -4.414062 9.484375 -4.28125 C 10.085938 -4.15625 10.859375 -4.09375 11.796875 -4.09375 C 14.367188 -4.09375 16.359375 -4.546875 17.765625 -5.453125 C 19.179688 -6.359375 19.890625 -7.707031 19.890625 -9.5 Z M 11.75 -27.28125 C 10.78125 -27.28125 9.992188 -27.195312 9.390625 -27.03125 C 8.785156 -26.875 8.328125 -26.660156 8.015625 -26.390625 C 7.710938 -26.128906 7.507812 -25.804688 7.40625 -25.421875 C 7.3125 -25.046875 7.265625 -24.640625 7.265625 -24.203125 L 7.265625 -18.046875 C 7.671875 -18.015625 8.097656 -18 8.546875 -18 C 9.003906 -18 9.441406 -18 9.859375 -18 C 10.910156 -18 11.941406 -18.070312 12.953125 -18.21875 C 13.960938 -18.363281 14.878906 -18.609375 15.703125 -18.953125 C 16.523438 -19.304688 17.1875 -19.789062 17.6875 -20.40625 C 18.1875 -21.03125 18.4375 -21.828125 18.4375 -22.796875 C 18.4375 -24.109375 17.898438 -25.179688 16.828125 -26.015625 C 15.753906 -26.859375 14.0625 -27.28125 11.75 -27.28125 Z M 11.75 -27.28125" transform="translate(181.054 221.562)"/><path fill="#5e17eb" d="M 2.953125 -2.546875 C 2.921875 -3.609375 2.890625 -4.84375 2.859375 -6.25 C 2.828125 -7.65625 2.800781 -9.175781 2.78125 -10.8125 C 2.769531 -12.457031 2.757812 -14.191406 2.75 -16.015625 C 2.738281 -17.835938 2.734375 -19.703125 2.734375 -21.609375 C 2.734375 -23.691406 2.742188 -25.476562 2.765625 -26.96875 C 2.796875 -28.46875 2.878906 -29.703125 3.015625 -30.671875 C 3.148438 -31.640625 3.363281 -32.347656 3.65625 -32.796875 C 3.945312 -33.253906 4.359375 -33.484375 4.890625 -33.484375 C 5.378906 -33.484375 5.816406 -33.320312 6.203125 -33 C 6.585938 -32.675781 6.804688 -31.925781 6.859375 -30.75 C 6.984375 -28.644531 7.054688 -26.453125 7.078125 -24.171875 C 7.109375 -21.898438 7.125 -19.664062 7.125 -17.46875 C 7.125 -16.144531 7.125 -14.875 7.125 -13.65625 C 7.125 -12.445312 7.109375 -11.242188 7.078125 -10.046875 C 7.054688 -8.859375 7.03125 -7.648438 7 -6.421875 C 6.96875 -5.191406 6.921875 -3.914062 6.859375 -2.59375 C 6.828125 -1.894531 6.757812 -1.351562 6.65625 -0.96875 C 6.5625 -0.582031 6.425781 -0.285156 6.25 -0.078125 C 6.070312 0.117188 5.875 0.238281 5.65625 0.28125 C 5.4375 0.332031 5.179688 0.359375 4.890625 0.359375 C 4.359375 0.359375 3.914062 0.175781 3.5625 -0.1875 C 3.207031 -0.5625 3.003906 -1.347656 2.953125 -2.546875 Z M 2.953125 -2.546875" transform="translate(206.657 221.562)"/><path fill="#5e17eb" d="M 12.84375 -22.3125 C 14.519531 -22.3125 16.015625 -22.050781 17.328125 -21.53125 C 18.648438 -21.019531 19.773438 -20.296875 20.703125 -19.359375 C 21.628906 -18.421875 22.335938 -17.273438 22.828125 -15.921875 C 23.328125 -14.578125 23.578125 -13.066406 23.578125 -11.390625 C 23.578125 -9.546875 23.289062 -7.890625 22.71875 -6.421875 C 22.15625 -4.953125 21.363281 -3.703125 20.34375 -2.671875 C 19.332031 -1.648438 18.128906 -0.859375 16.734375 -0.296875 C 15.347656 0.253906 13.832031 0.53125 12.1875 0.53125 C 10.394531 0.53125 8.816406 0.222656 7.453125 -0.390625 C 6.085938 -1.003906 4.941406 -1.835938 4.015625 -2.890625 C 3.097656 -3.953125 2.40625 -5.171875 1.9375 -6.546875 C 1.46875 -7.929688 1.234375 -9.382812 1.234375 -10.90625 C 1.234375 -12.582031 1.503906 -14.113281 2.046875 -15.5 C 2.585938 -16.894531 3.363281 -18.097656 4.375 -19.109375 C 5.382812 -20.128906 6.609375 -20.914062 8.046875 -21.46875 C 9.484375 -22.03125 11.082031 -22.3125 12.84375 -22.3125 Z M 12.359375 -3.515625 C 13.566406 -3.515625 14.59375 -3.726562 15.4375 -4.15625 C 16.289062 -4.582031 16.988281 -5.144531 17.53125 -5.84375 C 18.070312 -6.550781 18.46875 -7.351562 18.71875 -8.25 C 18.96875 -9.144531 19.09375 -10.078125 19.09375 -11.046875 C 19.09375 -12.046875 18.96875 -12.976562 18.71875 -13.84375 C 18.46875 -14.707031 18.085938 -15.460938 17.578125 -16.109375 C 17.066406 -16.753906 16.40625 -17.257812 15.59375 -17.625 C 14.789062 -17.988281 13.832031 -18.171875 12.71875 -18.171875 C 11.570312 -18.171875 10.570312 -17.976562 9.71875 -17.59375 C 8.875 -17.21875 8.164062 -16.695312 7.59375 -16.03125 C 7.019531 -15.375 6.585938 -14.585938 6.296875 -13.671875 C 6.003906 -12.765625 5.859375 -11.785156 5.859375 -10.734375 C 5.859375 -8.597656 6.40625 -6.859375 7.5 -5.515625 C 8.601562 -4.179688 10.222656 -3.515625 12.359375 -3.515625 Z M 12.359375 -3.515625" transform="translate(216.511 221.562)"/><path fill="#5e17eb" d="M 11.359375 6.03125 C 12.734375 6.03125 13.894531 5.757812 14.84375 5.21875 C 15.800781 4.675781 16.570312 3.894531 17.15625 2.875 C 17.75 1.863281 18.164062 0.648438 18.40625 -0.765625 C 18.65625 -2.191406 18.78125 -3.800781 18.78125 -5.59375 C 18.519531 -4.65625 18.140625 -3.863281 17.640625 -3.21875 C 17.140625 -2.570312 16.5625 -2.050781 15.90625 -1.65625 C 15.25 -1.257812 14.507812 -0.972656 13.6875 -0.796875 C 12.863281 -0.617188 12.007812 -0.53125 11.125 -0.53125 C 9.78125 -0.53125 8.503906 -0.71875 7.296875 -1.09375 C 6.097656 -1.476562 5.050781 -2.082031 4.15625 -2.90625 C 3.257812 -3.726562 2.546875 -4.773438 2.015625 -6.046875 C 1.492188 -7.328125 1.234375 -8.859375 1.234375 -10.640625 C 1.234375 -12.378906 1.488281 -13.972656 2 -15.421875 C 2.507812 -16.867188 3.253906 -18.117188 4.234375 -19.171875 C 5.222656 -20.234375 6.421875 -21.054688 7.828125 -21.640625 C 9.234375 -22.234375 10.847656 -22.53125 12.671875 -22.53125 C 13.640625 -22.53125 14.5 -22.441406 15.25 -22.265625 C 16 -22.085938 16.664062 -21.851562 17.25 -21.5625 C 17.832031 -21.269531 18.347656 -20.914062 18.796875 -20.5 C 19.253906 -20.09375 19.675781 -19.65625 20.0625 -19.1875 C 21.175781 -17.78125 21.984375 -16.113281 22.484375 -14.1875 C 22.984375 -12.269531 23.234375 -9.960938 23.234375 -7.265625 C 23.234375 -5.265625 23.0625 -3.222656 22.71875 -1.140625 C 22.382812 0.941406 21.773438 2.828125 20.890625 4.515625 C 20.015625 6.203125 18.800781 7.578125 17.25 8.640625 C 15.695312 9.710938 13.703125 10.25 11.265625 10.25 C 10.828125 10.25 10.332031 10.226562 9.78125 10.1875 C 9.238281 10.144531 8.679688 10.078125 8.109375 9.984375 C 7.546875 9.898438 6.984375 9.773438 6.421875 9.609375 C 5.867188 9.453125 5.359375 9.238281 4.890625 8.96875 C 4.296875 8.644531 3.820312 8.335938 3.46875 8.046875 C 3.125 7.753906 2.953125 7.269531 2.953125 6.59375 C 2.953125 6.039062 3.078125 5.535156 3.328125 5.078125 C 3.578125 4.628906 4.007812 4.40625 4.625 4.40625 C 4.914062 4.40625 5.234375 4.488281 5.578125 4.65625 C 5.929688 4.832031 6.363281 5.015625 6.875 5.203125 C 7.394531 5.398438 8.015625 5.585938 8.734375 5.765625 C 9.453125 5.941406 10.328125 6.03125 11.359375 6.03125 Z M 11.578125 -4.53125 C 12.710938 -4.53125 13.679688 -4.742188 14.484375 -5.171875 C 15.296875 -5.597656 15.957031 -6.160156 16.46875 -6.859375 C 16.988281 -7.566406 17.375 -8.359375 17.625 -9.234375 C 17.875 -10.117188 18 -11 18 -11.875 C 18 -12.613281 17.898438 -13.351562 17.703125 -14.09375 C 17.515625 -14.84375 17.203125 -15.523438 16.765625 -16.140625 C 16.328125 -16.765625 15.722656 -17.265625 14.953125 -17.640625 C 14.191406 -18.023438 13.238281 -18.21875 12.09375 -18.21875 C 10.164062 -18.21875 8.601562 -17.628906 7.40625 -16.453125 C 6.21875 -15.285156 5.625 -13.554688 5.625 -11.265625 C 5.625 -9.117188 6.148438 -7.457031 7.203125 -6.28125 C 8.265625 -5.113281 9.722656 -4.53125 11.578125 -4.53125 Z M 11.578125 -4.53125" transform="translate(241.763 221.562)"/><path fill="#5e17eb" d="M 3.546875 -2.765625 C 2.410156 -3.847656 1.703125 -5.132812 1.421875 -6.625 C 1.140625 -8.113281 1.0625 -9.648438 1.1875 -11.234375 C 1.320312 -12.828125 1.414062 -14.316406 1.46875 -15.703125 L 1.921875 -32.1875 C 1.972656 -33.976562 2 -35.796875 2 -37.640625 C 2 -39.492188 2.101562 -41.28125 2.3125 -43 C 2.519531 -44.71875 2.957031 -46.242188 3.625 -47.578125 C 4.289062 -48.921875 5.316406 -49.953125 6.703125 -50.671875 C 8.085938 -51.390625 9.957031 -51.695312 12.3125 -51.59375 C 13.550781 -51.539062 15.054688 -51.5 16.828125 -51.46875 C 18.597656 -51.445312 20.441406 -51.367188 22.359375 -51.234375 C 24.285156 -51.109375 26.144531 -50.835938 27.9375 -50.421875 C 29.738281 -50.015625 31.304688 -49.363281 32.640625 -48.46875 C 33.984375 -47.570312 34.910156 -46.351562 35.421875 -44.8125 C 36.140625 -42.757812 36.097656 -41.15625 35.296875 -40 C 34.503906 -38.84375 33.335938 -38.019531 31.796875 -37.53125 C 30.253906 -37.050781 28.625 -36.769531 26.90625 -36.6875 C 25.1875 -36.613281 23.710938 -36.628906 22.484375 -36.734375 C 21.660156 -36.785156 20.707031 -36.859375 19.625 -36.953125 C 18.550781 -37.054688 17.550781 -37.03125 16.625 -36.875 C 15.707031 -36.726562 15.015625 -36.320312 14.546875 -35.65625 C 13.828125 -34.625 13.570312 -33.773438 13.78125 -33.109375 C 13.988281 -32.441406 14.476562 -31.925781 15.25 -31.5625 C 16.019531 -31.207031 16.835938 -31.003906 17.703125 -30.953125 C 19.554688 -30.796875 21.203125 -30.523438 22.640625 -30.140625 C 24.078125 -29.753906 25.140625 -29.019531 25.828125 -27.9375 C 26.523438 -26.863281 26.691406 -25.222656 26.328125 -23.015625 C 25.816406 -19.890625 24.570312 -17.679688 22.59375 -16.390625 C 20.625 -15.109375 18.097656 -14.957031 15.015625 -15.9375 C 15.015625 -14.8125 14.9375 -13.347656 14.78125 -11.546875 C 14.625 -9.753906 14.316406 -7.957031 13.859375 -6.15625 C 13.398438 -4.363281 12.734375 -2.875 11.859375 -1.6875 C 10.984375 -0.507812 9.863281 0.0625 8.5 0.03125 C 7.144531 0.0078125 5.492188 -0.921875 3.546875 -2.765625 Z M 3.546875 -2.765625" transform="translate(11.48 181.287)"/><path fill="#5e17eb" d="M 41.5 -2.625 C 39.8125 -0.976562 38.269531 -0.101562 36.875 0 C 35.488281 0.101562 34.242188 -0.34375 33.140625 -1.34375 C 32.046875 -2.34375 31.085938 -3.664062 30.265625 -5.3125 C 29.441406 -6.957031 28.734375 -8.710938 28.140625 -10.578125 C 27.554688 -12.453125 27.082031 -14.222656 26.71875 -15.890625 C 26.363281 -17.566406 26.082031 -18.863281 25.875 -19.78125 C 25.457031 -19.6875 24.75 -19.5625 23.75 -19.40625 C 22.75 -19.25 21.785156 -19.066406 20.859375 -18.859375 C 19.941406 -18.660156 19.328125 -18.40625 19.015625 -18.09375 C 18.660156 -17.738281 18.457031 -17.035156 18.40625 -15.984375 C 18.351562 -14.929688 18.273438 -14.144531 18.171875 -13.625 C 17.816406 -12.132812 17.421875 -10.617188 16.984375 -9.078125 C 16.546875 -7.546875 15.8125 -6.160156 14.78125 -4.921875 C 13.445312 -3.335938 11.921875 -2.398438 10.203125 -2.109375 C 8.484375 -1.828125 6.878906 -2.148438 5.390625 -3.078125 C 3.898438 -4.003906 2.796875 -5.414062 2.078125 -7.3125 C 1.304688 -9.414062 1 -11.75 1.15625 -14.3125 C 1.3125 -16.882812 1.601562 -19.46875 2.03125 -22.0625 C 2.46875 -24.65625 2.765625 -27.03125 2.921875 -29.1875 C 3.179688 -32.726562 3.234375 -36.359375 3.078125 -40.078125 C 2.921875 -43.796875 3.128906 -47.375 3.703125 -50.8125 C 4.054688 -52.96875 4.925781 -54.675781 6.3125 -55.9375 C 7.695312 -57.195312 9.425781 -58.082031 11.5 -58.59375 C 13.582031 -59.101562 15.832031 -59.347656 18.25 -59.328125 C 20.664062 -59.304688 23.066406 -59.0625 25.453125 -58.59375 C 27.835938 -58.132812 30.03125 -57.53125 32.03125 -56.78125 C 34.03125 -56.039062 35.671875 -55.257812 36.953125 -54.4375 C 39.679688 -52.695312 41.632812 -50.644531 42.8125 -48.28125 C 43.988281 -45.914062 44.515625 -43.445312 44.390625 -40.875 C 44.265625 -38.3125 43.554688 -35.785156 42.265625 -33.296875 C 40.984375 -30.804688 39.265625 -28.5625 37.109375 -26.5625 C 38.035156 -25.125 39.078125 -23.378906 40.234375 -21.328125 C 41.390625 -19.273438 42.351562 -17.101562 43.125 -14.8125 C 43.894531 -12.53125 44.226562 -10.320312 44.125 -8.1875 C 44.019531 -6.0625 43.144531 -4.207031 41.5 -2.625 Z M 17.78125 -29.40625 C 19.269531 -29.976562 20.734375 -30.597656 22.171875 -31.265625 C 23.609375 -31.929688 24.96875 -32.726562 26.25 -33.65625 C 27.945312 -34.832031 28.894531 -36 29.09375 -37.15625 C 29.300781 -38.3125 29.019531 -39.363281 28.25 -40.3125 C 27.488281 -41.257812 26.4375 -42 25.09375 -42.53125 C 23.757812 -43.070312 22.375 -43.296875 20.9375 -43.203125 C 19.8125 -43.148438 18.875 -43.046875 18.125 -42.890625 C 17.382812 -42.734375 16.863281 -42.144531 16.5625 -41.125 C 16.25 -40.195312 16.179688 -39 16.359375 -37.53125 C 16.535156 -36.070312 16.789062 -34.609375 17.125 -33.140625 C 17.46875 -31.679688 17.6875 -30.4375 17.78125 -29.40625 Z M 17.78125 -29.40625" transform="translate(47.359 181.287)"/><path fill="#5e17eb" d="M 5.921875 -0.46875 C 3.921875 -1.03125 2.585938 -1.988281 1.921875 -3.34375 C 1.253906 -4.707031 1 -6.273438 1.15625 -8.046875 C 1.3125 -9.816406 1.628906 -11.585938 2.109375 -13.359375 C 2.597656 -15.128906 3.023438 -16.734375 3.390625 -18.171875 C 4.316406 -21.972656 5.34375 -25.757812 6.46875 -29.53125 C 7.59375 -33.300781 8.773438 -37.0625 10.015625 -40.8125 C 11.035156 -43.988281 12.519531 -46.566406 14.46875 -48.546875 C 16.425781 -50.523438 19.203125 -51.566406 22.796875 -51.671875 C 24.796875 -51.722656 26.4375 -51.242188 27.71875 -50.234375 C 29 -49.234375 30.035156 -47.925781 30.828125 -46.3125 C 31.628906 -44.695312 32.3125 -42.988281 32.875 -41.1875 C 33.4375 -39.394531 33.976562 -37.726562 34.5 -36.1875 L 43.5 -10.859375 C 44.113281 -9.160156 44.394531 -7.644531 44.34375 -6.3125 C 44.300781 -4.976562 43.535156 -3.695312 42.046875 -2.46875 C 40.554688 -1.28125 39.117188 -0.738281 37.734375 -0.84375 C 36.347656 -0.945312 35.113281 -1.796875 34.03125 -3.390625 C 33.519531 -4.160156 33.097656 -5.132812 32.765625 -6.3125 C 32.429688 -7.488281 32.070312 -8.640625 31.6875 -9.765625 C 31.300781 -10.898438 30.75 -11.75 30.03125 -12.3125 C 29.925781 -12.414062 29.296875 -12.519531 28.140625 -12.625 C 26.984375 -12.726562 25.648438 -12.816406 24.140625 -12.890625 C 22.628906 -12.972656 21.242188 -13 19.984375 -12.96875 C 18.722656 -12.945312 17.941406 -12.804688 17.640625 -12.546875 C 16.921875 -11.929688 16.414062 -10.957031 16.125 -9.625 C 15.84375 -8.289062 15.585938 -6.914062 15.359375 -5.5 C 15.128906 -4.09375 14.679688 -2.976562 14.015625 -2.15625 C 13.085938 -1.03125 11.851562 -0.363281 10.3125 -0.15625 C 8.78125 0.0507812 7.316406 -0.0507812 5.921875 -0.46875 Z M 21.171875 -23.484375 C 21.890625 -23.585938 22.59375 -23.710938 23.28125 -23.859375 C 23.976562 -24.015625 24.660156 -24.144531 25.328125 -24.25 C 24.972656 -25.28125 24.628906 -26.304688 24.296875 -27.328125 C 23.960938 -28.359375 23.640625 -29.390625 23.328125 -30.421875 C 22.972656 -29.285156 22.613281 -28.140625 22.25 -26.984375 C 21.894531 -25.828125 21.535156 -24.660156 21.171875 -23.484375 Z M 21.171875 -23.484375" transform="translate(92.861 181.287)"/><path fill="#5e17eb" d="M 3.625 -1.46875 C 2.75 -2.4375 2.128906 -3.691406 1.765625 -5.234375 C 1.410156 -6.773438 1.21875 -8.429688 1.1875 -10.203125 C 1.164062 -11.972656 1.21875 -13.691406 1.34375 -15.359375 C 1.476562 -17.023438 1.566406 -18.453125 1.609375 -19.640625 C 1.710938 -21.023438 1.765625 -22.703125 1.765625 -24.671875 C 1.765625 -26.648438 1.828125 -28.742188 1.953125 -30.953125 C 2.085938 -33.160156 2.359375 -35.316406 2.765625 -37.421875 C 3.179688 -39.523438 3.8125 -41.375 4.65625 -42.96875 C 5.5 -44.5625 6.640625 -45.71875 8.078125 -46.4375 C 9.617188 -47.207031 11.144531 -47.410156 12.65625 -47.046875 C 14.175781 -46.691406 15.578125 -46.007812 16.859375 -45 C 18.140625 -44 19.164062 -42.859375 19.9375 -41.578125 C 21.425781 -39.210938 22.695312 -36.769531 23.75 -34.25 C 24.800781 -31.738281 26.097656 -29.28125 27.640625 -26.875 C 27.585938 -28.101562 27.472656 -29.5 27.296875 -31.0625 C 27.117188 -32.632812 27.03125 -34.226562 27.03125 -35.84375 C 27.03125 -37.457031 27.222656 -38.992188 27.609375 -40.453125 C 27.992188 -41.921875 28.671875 -43.171875 29.640625 -44.203125 C 30.921875 -45.535156 32.28125 -46.210938 33.71875 -46.234375 C 35.15625 -46.265625 36.4375 -45.800781 37.5625 -44.84375 C 38.695312 -43.894531 39.367188 -42.550781 39.578125 -40.8125 C 39.929688 -38.445312 40.25 -35.75 40.53125 -32.71875 C 40.820312 -29.695312 40.953125 -26.59375 40.921875 -23.40625 C 40.898438 -20.226562 40.65625 -17.148438 40.1875 -14.171875 C 39.726562 -11.191406 38.960938 -8.546875 37.890625 -6.234375 C 36.703125 -3.722656 35.398438 -2.25 33.984375 -1.8125 C 32.578125 -1.375 31.101562 -1.640625 29.5625 -2.609375 C 28.03125 -3.585938 26.519531 -5 25.03125 -6.84375 C 23.539062 -8.695312 22.140625 -10.675781 20.828125 -12.78125 C 19.515625 -14.882812 18.359375 -16.832031 17.359375 -18.625 C 16.359375 -20.425781 15.601562 -21.765625 15.09375 -22.640625 C 14.988281 -22.128906 14.796875 -21.078125 14.515625 -19.484375 C 14.234375 -17.890625 13.859375 -16.066406 13.390625 -14.015625 C 12.929688 -11.960938 12.394531 -9.929688 11.78125 -7.921875 C 11.164062 -5.921875 10.457031 -4.203125 9.65625 -2.765625 C 8.863281 -1.328125 7.96875 -0.425781 6.96875 -0.0625 C 5.96875 0.289062 4.851562 -0.175781 3.625 -1.46875 Z M 3.625 -1.46875" transform="translate(138.44 181.287)"/><path fill="#5e17eb" d="M 17.484375 -1 C 14.035156 -2.125 11.015625 -3.921875 8.421875 -6.390625 C 5.835938 -8.859375 3.90625 -11.785156 2.625 -15.171875 C 1.332031 -18.710938 0.863281 -22.238281 1.21875 -25.75 C 1.582031 -29.269531 2.613281 -32.582031 4.3125 -35.6875 C 6.007812 -38.789062 8.21875 -41.523438 10.9375 -43.890625 C 13.65625 -46.253906 16.734375 -48 20.171875 -49.125 C 21.554688 -49.582031 23.09375 -49.976562 24.78125 -50.3125 C 26.476562 -50.644531 28.125 -50.75 29.71875 -50.625 C 31.3125 -50.5 32.632812 -49.972656 33.6875 -49.046875 C 34.738281 -48.117188 35.316406 -46.601562 35.421875 -44.5 C 35.523438 -42.5 35.085938 -40.84375 34.109375 -39.53125 C 33.128906 -38.226562 31.859375 -37.164062 30.296875 -36.34375 C 28.734375 -35.519531 27.078125 -34.835938 25.328125 -34.296875 C 23.585938 -33.765625 21.972656 -33.265625 20.484375 -32.796875 C 19.253906 -31.617188 18.160156 -30.285156 17.203125 -28.796875 C 16.253906 -27.304688 15.640625 -25.816406 15.359375 -24.328125 C 15.078125 -22.835938 15.28125 -21.453125 15.96875 -20.171875 C 16.664062 -18.890625 18.015625 -17.8125 20.015625 -16.9375 C 21.253906 -16.425781 22.550781 -16.066406 23.90625 -15.859375 C 25.269531 -15.648438 26.578125 -15.441406 27.828125 -15.234375 C 29.085938 -15.035156 30.21875 -14.691406 31.21875 -14.203125 C 32.21875 -13.710938 32.960938 -12.96875 33.453125 -11.96875 C 33.941406 -10.96875 34.082031 -9.519531 33.875 -7.625 C 33.675781 -5.570312 33.007812 -3.96875 31.875 -2.8125 C 30.75 -1.65625 29.375 -0.867188 27.75 -0.453125 C 26.132812 -0.046875 24.425781 0.09375 22.625 -0.03125 C 20.832031 -0.164062 19.117188 -0.488281 17.484375 -1 Z M 17.484375 -1" transform="translate(180.556 181.287)"/><path fill="#5e17eb" d="M 1.390625 -48.59375 C 0.972656 -50.125 1.046875 -51.660156 1.609375 -53.203125 C 2.179688 -54.742188 3.066406 -56.117188 4.265625 -57.328125 C 5.472656 -58.535156 6.820312 -59.34375 8.3125 -59.75 C 8.925781 -59.90625 9.722656 -59.941406 10.703125 -59.859375 C 11.679688 -59.785156 12.65625 -59.554688 13.625 -59.171875 C 14.601562 -58.785156 15.359375 -58.257812 15.890625 -57.59375 C 16.429688 -56.925781 16.550781 -56.101562 16.25 -55.125 C 16.757812 -53.59375 16.679688 -52.039062 16.015625 -50.46875 C 15.347656 -48.90625 14.347656 -47.546875 13.015625 -46.390625 C 11.679688 -45.234375 10.226562 -44.445312 8.65625 -44.03125 C 7.09375 -43.625 5.644531 -43.753906 4.3125 -44.421875 C 2.976562 -45.097656 2.003906 -46.488281 1.390625 -48.59375 Z M 11.46875 -1.078125 C 9.78125 0.0976562 8.140625 0.328125 6.546875 -0.390625 C 4.953125 -1.109375 3.742188 -2.3125 2.921875 -4 C 2.148438 -5.644531 1.648438 -7.53125 1.421875 -9.65625 C 1.191406 -11.789062 1.113281 -14.007812 1.1875 -16.3125 C 1.269531 -18.625 1.410156 -20.882812 1.609375 -23.09375 C 1.816406 -25.300781 2 -27.253906 2.15625 -28.953125 C 2.257812 -30.023438 2.363281 -31.265625 2.46875 -32.671875 C 2.570312 -34.085938 2.800781 -35.488281 3.15625 -36.875 C 3.519531 -38.269531 4.082031 -39.375 4.84375 -40.1875 C 5.976562 -41.375 7.160156 -41.925781 8.390625 -41.84375 C 9.617188 -41.769531 10.785156 -41.304688 11.890625 -40.453125 C 12.992188 -39.609375 13.832031 -38.546875 14.40625 -37.265625 C 15.6875 -34.492188 16.414062 -31.398438 16.59375 -27.984375 C 16.769531 -24.578125 16.628906 -21.148438 16.171875 -17.703125 C 15.710938 -14.265625 15.195312 -11.109375 14.625 -8.234375 C 14.375 -6.953125 14.082031 -5.65625 13.75 -4.34375 C 13.414062 -3.039062 12.65625 -1.953125 11.46875 -1.078125 Z M 11.46875 -1.078125" transform="translate(217.127 181.287)"/><path fill="#5e17eb" d="M 3.625 -1.46875 C 2.75 -2.4375 2.128906 -3.691406 1.765625 -5.234375 C 1.410156 -6.773438 1.21875 -8.429688 1.1875 -10.203125 C 1.164062 -11.972656 1.21875 -13.691406 1.34375 -15.359375 C 1.476562 -17.023438 1.566406 -18.453125 1.609375 -19.640625 C 1.710938 -21.023438 1.765625 -22.703125 1.765625 -24.671875 C 1.765625 -26.648438 1.828125 -28.742188 1.953125 -30.953125 C 2.085938 -33.160156 2.359375 -35.316406 2.765625 -37.421875 C 3.179688 -39.523438 3.8125 -41.375 4.65625 -42.96875 C 5.5 -44.5625 6.640625 -45.71875 8.078125 -46.4375 C 9.617188 -47.207031 11.144531 -47.410156 12.65625 -47.046875 C 14.175781 -46.691406 15.578125 -46.007812 16.859375 -45 C 18.140625 -44 19.164062 -42.859375 19.9375 -41.578125 C 21.425781 -39.210938 22.695312 -36.769531 23.75 -34.25 C 24.800781 -31.738281 26.097656 -29.28125 27.640625 -26.875 C 27.585938 -28.101562 27.472656 -29.5 27.296875 -31.0625 C 27.117188 -32.632812 27.03125 -34.226562 27.03125 -35.84375 C 27.03125 -37.457031 27.222656 -38.992188 27.609375 -40.453125 C 27.992188 -41.921875 28.671875 -43.171875 29.640625 -44.203125 C 30.921875 -45.535156 32.28125 -46.210938 33.71875 -46.234375 C 35.15625 -46.265625 36.4375 -45.800781 37.5625 -44.84375 C 38.695312 -43.894531 39.367188 -42.550781 39.578125 -40.8125 C 39.929688 -38.445312 40.25 -35.75 40.53125 -32.71875 C 40.820312 -29.695312 40.953125 -26.59375 40.921875 -23.40625 C 40.898438 -20.226562 40.65625 -17.148438 40.1875 -14.171875 C 39.726562 -11.191406 38.960938 -8.546875 37.890625 -6.234375 C 36.703125 -3.722656 35.398438 -2.25 33.984375 -1.8125 C 32.578125 -1.375 31.101562 -1.640625 29.5625 -2.609375 C 28.03125 -3.585938 26.519531 -5 25.03125 -6.84375 C 23.539062 -8.695312 22.140625 -10.675781 20.828125 -12.78125 C 19.515625 -14.882812 18.359375 -16.832031 17.359375 -18.625 C 16.359375 -20.425781 15.601562 -21.765625 15.09375 -22.640625 C 14.988281 -22.128906 14.796875 -21.078125 14.515625 -19.484375 C 14.234375 -17.890625 13.859375 -16.066406 13.390625 -14.015625 C 12.929688 -11.960938 12.394531 -9.929688 11.78125 -7.921875 C 11.164062 -5.921875 10.457031 -4.203125 9.65625 -2.765625 C 8.863281 -1.328125 7.96875 -0.425781 6.96875 -0.0625 C 5.96875 0.289062 4.851562 -0.175781 3.625 -1.46875 Z M 3.625 -1.46875" transform="translate(234.912 181.287)"/><path fill="#5e17eb" d="M 12.78125 -0.15625 C 11.75 -0.15625 10.644531 -0.113281 9.46875 -0.03125 C 8.289062 0.0390625 7.148438 -0.0351562 6.046875 -0.265625 C 4.941406 -0.492188 3.953125 -1.019531 3.078125 -1.84375 C 2.148438 -2.769531 1.582031 -3.875 1.375 -5.15625 C 1.175781 -6.4375 1.128906 -7.78125 1.234375 -9.1875 C 1.335938 -10.601562 1.414062 -11.878906 1.46875 -13.015625 C 1.5625 -15.222656 1.660156 -17.414062 1.765625 -19.59375 C 1.867188 -21.78125 1.972656 -23.976562 2.078125 -26.1875 C 2.179688 -28.75 2.296875 -31.328125 2.421875 -33.921875 C 2.554688 -36.515625 2.644531 -39.09375 2.6875 -41.65625 C 2.789062 -43.09375 2.789062 -44.679688 2.6875 -46.421875 C 2.59375 -48.171875 2.800781 -49.738281 3.3125 -51.125 C 3.769531 -52.40625 4.628906 -53.367188 5.890625 -54.015625 C 7.148438 -54.660156 8.625 -55.070312 10.3125 -55.25 C 12.007812 -55.425781 13.769531 -55.445312 15.59375 -55.3125 C 17.414062 -55.1875 19.132812 -55.007812 20.75 -54.78125 C 22.363281 -54.550781 23.6875 -54.359375 24.71875 -54.203125 C 25.894531 -54.054688 27.019531 -53.828125 28.09375 -53.515625 C 29.175781 -53.203125 30.085938 -52.695312 30.828125 -52 C 31.578125 -51.3125 32.03125 -50.273438 32.1875 -48.890625 C 32.394531 -47.453125 32.160156 -46.144531 31.484375 -44.96875 C 30.816406 -43.789062 29.816406 -42.914062 28.484375 -42.34375 C 27.460938 -41.9375 26.4375 -41.8125 25.40625 -41.96875 C 24.382812 -42.125 23.359375 -42.300781 22.328125 -42.5 C 21.304688 -42.707031 20.304688 -42.679688 19.328125 -42.421875 C 18.710938 -42.316406 18.097656 -41.90625 17.484375 -41.1875 C 16.867188 -40.46875 16.519531 -39.671875 16.4375 -38.796875 C 16.363281 -37.929688 16.765625 -37.164062 17.640625 -36.5 C 18.304688 -36.039062 19.253906 -35.832031 20.484375 -35.875 C 21.710938 -35.925781 22.976562 -36.003906 24.28125 -36.109375 C 25.59375 -36.210938 26.660156 -36.113281 27.484375 -35.8125 C 28.816406 -35.289062 29.753906 -34.617188 30.296875 -33.796875 C 30.835938 -32.984375 31.160156 -31.90625 31.265625 -30.5625 C 31.460938 -28.976562 31.304688 -27.375 30.796875 -25.75 C 30.285156 -24.132812 29.179688 -23.070312 27.484375 -22.5625 C 26.460938 -22.300781 25.359375 -22.3125 24.171875 -22.59375 C 22.992188 -22.875 21.835938 -23.078125 20.703125 -23.203125 C 19.578125 -23.335938 18.578125 -22.992188 17.703125 -22.171875 C 16.628906 -21.148438 16.179688 -20.238281 16.359375 -19.4375 C 16.535156 -18.644531 17.085938 -17.96875 18.015625 -17.40625 C 18.941406 -16.84375 19.957031 -16.40625 21.0625 -16.09375 C 22.164062 -15.78125 23.078125 -15.597656 23.796875 -15.546875 C 24.867188 -15.503906 26.046875 -15.519531 27.328125 -15.59375 C 28.617188 -15.664062 29.878906 -15.640625 31.109375 -15.515625 C 32.335938 -15.390625 33.414062 -14.96875 34.34375 -14.25 C 35.21875 -13.632812 35.769531 -12.757812 36 -11.625 C 36.226562 -10.5 36.265625 -9.359375 36.109375 -8.203125 C 35.953125 -7.046875 35.722656 -6.03125 35.421875 -5.15625 C 34.648438 -3.257812 33.546875 -2.039062 32.109375 -1.5 C 30.671875 -0.957031 28.976562 -0.632812 27.03125 -0.53125 C 24.664062 -0.4375 22.300781 -0.375 19.9375 -0.34375 C 17.582031 -0.320312 15.195312 -0.257812 12.78125 -0.15625 Z M 12.78125 -0.15625" transform="translate(277.027 181.287)"/><path fill="#5e17eb" d="M 3.84375 -33.34375 C 2.71875 -33.082031 1.972656 -33.234375 1.609375 -33.796875 C 1.253906 -34.367188 1.128906 -35.085938 1.234375 -35.953125 C 1.335938 -36.828125 1.539062 -37.625 1.84375 -38.34375 C 2.507812 -39.882812 3.28125 -41.347656 4.15625 -42.734375 C 5.03125 -44.117188 6.335938 -44.890625 8.078125 -45.046875 C 9.367188 -45.148438 10.207031 -44.789062 10.59375 -43.96875 C 10.976562 -43.144531 11.078125 -42.191406 10.890625 -41.109375 C 10.710938 -40.035156 10.394531 -39.164062 9.9375 -38.5 C 9.269531 -37.519531 8.382812 -36.476562 7.28125 -35.375 C 6.175781 -34.269531 5.03125 -33.59375 3.84375 -33.34375 Z M 3.84375 -33.34375" transform="translate(314.368 181.287)"/><path fill="#5e17eb" d="M 12.859375 -0.46875 C 11.734375 -0.664062 10.472656 -0.90625 9.078125 -1.1875 C 7.691406 -1.46875 6.382812 -1.890625 5.15625 -2.453125 C 3.925781 -3.023438 2.953125 -3.820312 2.234375 -4.84375 C 1.253906 -6.28125 0.894531 -7.585938 1.15625 -8.765625 C 1.414062 -9.953125 2.09375 -10.90625 3.1875 -11.625 C 4.289062 -12.34375 5.585938 -12.675781 7.078125 -12.625 C 8.003906 -12.625 9.03125 -12.414062 10.15625 -12 C 11.289062 -11.59375 12.4375 -11.207031 13.59375 -10.84375 C 14.75 -10.488281 15.835938 -10.398438 16.859375 -10.578125 C 17.890625 -10.765625 18.765625 -11.472656 19.484375 -12.703125 C 20.304688 -14.035156 20.421875 -15.226562 19.828125 -16.28125 C 19.234375 -17.332031 18.359375 -18.226562 17.203125 -18.96875 C 16.054688 -19.71875 14.992188 -20.328125 14.015625 -20.796875 C 10.109375 -22.691406 7.242188 -25.21875 5.421875 -28.375 C 3.597656 -31.53125 3 -35.316406 3.625 -39.734375 C 4.238281 -44.148438 6.007812 -47.960938 8.9375 -51.171875 C 11.863281 -54.378906 15.429688 -56.570312 19.640625 -57.75 C 21.691406 -58.363281 23.9375 -58.695312 26.375 -58.75 C 28.8125 -58.800781 30.976562 -58.238281 32.875 -57.0625 C 33.957031 -56.394531 34.78125 -55.484375 35.34375 -54.328125 C 35.90625 -53.171875 36.046875 -52.039062 35.765625 -50.9375 C 35.484375 -49.832031 34.546875 -49.023438 32.953125 -48.515625 C 31.304688 -47.992188 29.648438 -47.285156 27.984375 -46.390625 C 26.316406 -45.492188 24.84375 -44.453125 23.5625 -43.265625 C 22.28125 -42.085938 21.351562 -40.789062 20.78125 -39.375 C 20.21875 -37.96875 20.164062 -36.492188 20.625 -34.953125 C 21.09375 -33.410156 22.273438 -31.847656 24.171875 -30.265625 C 25.359375 -29.234375 26.566406 -28.296875 27.796875 -27.453125 C 29.023438 -26.609375 30.175781 -25.679688 31.25 -24.671875 C 32.332031 -23.671875 33.207031 -22.398438 33.875 -20.859375 C 34.75 -18.960938 35.222656 -16.894531 35.296875 -14.65625 C 35.378906 -12.425781 35.007812 -10.335938 34.1875 -8.390625 C 33.3125 -6.285156 32.078125 -4.617188 30.484375 -3.390625 C 28.898438 -2.160156 27.117188 -1.285156 25.140625 -0.765625 C 23.160156 -0.253906 21.117188 0 19.015625 0 C 16.910156 0 14.859375 -0.15625 12.859375 -0.46875 Z M 12.859375 -0.46875" transform="translate(326.456 181.287)"/></svg>