<svg xmlns="http://www.w3.org/2000/svg" xmlns:xlink="http://www.w3.org/1999/xlink" width="500" zoomAndPan="magnify" viewBox="0 0 375 374.999991" height="500" preserveAspectRatio="xMidYMid meet" version="1.0"><defs><g/><clipPath id="2beb238978"><path d="M 150 162.191406 L 187.355469 162.191406 L 187.355469 194 L 150 194 Z M 150 162.191406 " clip-rule="nonzero"/></clipPath></defs><path fill="#e2a9f1" d="M 336.671875 133.1875 C 329.273438 108.585938 311.785156 86.796875 288.8125 75.386719 C 236.570312 49.933594 169.882812 73.640625 121.953125 100.773438 C 90.542969 119.03125 55.105469 144.609375 41.191406 177.085938 C 34.601562 191.945312 31.640625 207.996094 30.890625 224.289062 C 29.839844 253.738281 34.808594 300.003906 61.382812 316.339844 C 76.53125 325.070312 94.039062 321.074219 111.066406 315.714844 C 124.988281 311.210938 139.960938 305.308594 154.527344 300.4375 C 165.117188 296.84375 176.027344 293.449219 186.8125 290.367188 C 221.226562 280.113281 259.523438 273.855469 288.496094 254.597656 C 303.910156 244.359375 316.621094 230.492188 326.144531 214.53125 C 340.875 190.601562 345.125 159.867188 336.699219 133.273438 Z M 336.671875 133.1875 " fill-opacity="1" fill-rule="nonzero"/><path fill="#5e17eb" d="M 142.082031 190.417969 C 140.976562 190.320312 130.222656 184.875 110.960938 212.394531 C 110.757812 212.6875 104.039062 217.121094 117.261719 230.769531 C 134 248.054688 161.132812 239.613281 163.394531 234.929688 C 164.347656 232.949219 171.871094 210.183594 167.855469 203.953125 C 163.207031 196.742188 155.503906 194.589844 154.207031 194.230469 C 153.84375 194.128906 153.867188 194.140625 149.632812 193.035156 " fill-opacity="1" fill-rule="evenodd"/><path fill="#ededed" d="M 108.433594 217.695312 C 106.566406 220.679688 106.402344 220.558594 105.234375 223.207031 C 103.445312 227.242188 92.882812 257.941406 106.898438 270.105469 C 116.503906 278.433594 123.5 282.957031 139.648438 275.671875 C 154.675781 268.886719 163.117188 238.058594 164.003906 234.382812 C 160.457031 237.742188 159.492188 238.621094 146.28125 240.75 C 133.15625 242.859375 112.828125 233.25 108.433594 217.695312 Z M 108.433594 217.695312 " fill-opacity="1" fill-rule="evenodd"/><path fill="#ffffff" d="M 125.46875 280.058594 C 123.324219 280.070312 121.214844 279.816406 119.136719 279.300781 C 111.578125 277.398438 105.679688 272.042969 101.59375 263.382812 C 101.503906 263.195312 101.496094 263 101.566406 262.804688 C 101.636719 262.605469 101.769531 262.464844 101.957031 262.375 C 102.144531 262.285156 102.339844 262.277344 102.535156 262.347656 C 102.734375 262.417969 102.875 262.546875 102.964844 262.734375 C 106.847656 270.964844 112.414062 276.042969 119.507812 277.832031 C 130.273438 280.546875 141.078125 274.863281 143.179688 273.308594 C 159.566406 261.191406 168.832031 212.53125 168.828125 210.359375 C 168.800781 195.75 141.347656 190.988281 135.851562 190.183594 L 135.660156 190.15625 C 135.453125 190.125 135.285156 190.023438 135.160156 189.855469 C 135.035156 189.683594 134.992188 189.492188 135.023438 189.285156 C 135.058594 189.078125 135.160156 188.914062 135.328125 188.789062 C 135.5 188.664062 135.6875 188.621094 135.894531 188.652344 L 136.078125 188.675781 C 144.105469 189.859375 170.3125 194.90625 170.34375 210.355469 C 170.34375 212.570312 160.859375 262.121094 144.082031 274.53125 C 142.28125 275.859375 134.429688 280.058594 125.46875 280.058594 Z M 125.46875 280.058594 " fill-opacity="1" fill-rule="nonzero"/><path fill="#ffffff" d="M 101.222656 260.824219 C 101.035156 260.824219 100.871094 260.761719 100.730469 260.640625 C 100.589844 260.515625 100.503906 260.363281 100.476562 260.179688 C 100.433594 259.898438 100.347656 259.484375 100.238281 258.960938 C 99.472656 255.246094 97.4375 245.375 100.585938 234.671875 C 107.863281 209.921875 120.578125 199.125 128.171875 192.671875 C 128.761719 192.171875 129.320312 191.695312 129.851562 191.238281 C 130.007812 191.089844 130.195312 191.023438 130.410156 191.035156 C 130.625 191.042969 130.804688 191.132812 130.945312 191.292969 C 131.085938 191.457031 131.144531 191.644531 131.125 191.859375 C 131.105469 192.074219 131.011719 192.25 130.84375 192.382812 C 130.308594 192.847656 129.746094 193.324219 129.15625 193.824219 C 121.203125 200.582031 109.191406 210.792969 102.039062 235.09375 C 99 245.429688 100.976562 255.035156 101.722656 258.648438 C 101.839844 259.210938 101.929688 259.648438 101.972656 259.949219 C 102.007812 260.160156 101.960938 260.347656 101.839844 260.519531 C 101.714844 260.6875 101.546875 260.789062 101.339844 260.820312 C 101.300781 260.824219 101.261719 260.824219 101.222656 260.824219 Z M 101.222656 260.824219 " fill-opacity="1" fill-rule="nonzero"/><path fill="#ffffff" d="M 132.65625 192.054688 C 132.492188 192.054688 132.34375 192.007812 132.210938 191.910156 C 132.078125 191.8125 131.988281 191.6875 131.9375 191.53125 L 131.484375 190.1875 C 131.410156 189.988281 131.421875 189.792969 131.515625 189.601562 C 131.605469 189.410156 131.753906 189.28125 131.953125 189.214844 C 132.15625 189.144531 132.351562 189.160156 132.539062 189.253906 C 132.730469 189.351562 132.855469 189.5 132.921875 189.703125 L 133.375 191.046875 C 133.441406 191.246094 133.429688 191.4375 133.335938 191.625 C 133.242188 191.8125 133.097656 191.941406 132.898438 192.007812 C 132.820312 192.039062 132.738281 192.054688 132.65625 192.054688 Z M 132.65625 192.054688 " fill-opacity="1" fill-rule="nonzero"/><path fill="#ffffff" d="M 134.425781 191.199219 C 134.261719 191.199219 134.113281 191.152344 133.980469 191.054688 C 133.847656 190.960938 133.757812 190.832031 133.703125 190.675781 L 133.421875 189.789062 C 133.359375 189.589844 133.375 189.394531 133.472656 189.210938 C 133.566406 189.023438 133.714844 188.898438 133.914062 188.835938 C 134.113281 188.769531 134.308594 188.785156 134.496094 188.882812 C 134.679688 188.976562 134.804688 189.125 134.867188 189.328125 L 135.148438 190.21875 C 135.210938 190.417969 135.195312 190.609375 135.101562 190.796875 C 135.003906 190.980469 134.855469 191.105469 134.65625 191.167969 C 134.582031 191.191406 134.503906 191.203125 134.425781 191.199219 Z M 134.425781 191.199219 " fill-opacity="1" fill-rule="nonzero"/><path fill="#ffffff" d="M 101.421875 262.589844 C 101.25 262.589844 101.09375 262.535156 100.957031 262.425781 C 100.820312 262.320312 100.734375 262.179688 100.691406 262.011719 C 100.652344 261.84375 100.667969 261.679688 100.738281 261.523438 C 100.808594 261.363281 100.921875 261.246094 101.074219 261.164062 L 101.894531 260.726562 C 102.078125 260.628906 102.269531 260.609375 102.46875 260.671875 C 102.671875 260.734375 102.820312 260.855469 102.917969 261.039062 C 103.015625 261.226562 103.035156 261.417969 102.972656 261.617188 C 102.914062 261.816406 102.789062 261.96875 102.605469 262.066406 L 101.785156 262.503906 C 101.671875 262.5625 101.550781 262.59375 101.421875 262.589844 Z M 101.421875 262.589844 " fill-opacity="1" fill-rule="nonzero"/><path fill="#ffffff" d="M 140.519531 218.875 C 139.433594 218.875 138.410156 218.355469 137.46875 217.335938 C 134.03125 213.601562 139.167969 206.691406 141.929688 202.976562 C 142.320312 202.457031 142.664062 201.992188 142.921875 201.621094 C 143.042969 201.449219 143.207031 201.34375 143.410156 201.308594 C 143.617188 201.269531 143.808594 201.3125 143.980469 201.433594 C 144.152344 201.554688 144.253906 201.714844 144.292969 201.921875 C 144.328125 202.128906 144.285156 202.316406 144.164062 202.488281 C 143.902344 202.871094 143.550781 203.34375 143.148438 203.882812 C 140.824219 207 135.996094 213.496094 138.582031 216.3125 C 139.292969 217.082031 139.972656 217.433594 140.71875 217.355469 C 142.015625 217.222656 143.328125 215.753906 144.136719 214.421875 C 144.753906 213.394531 145.355469 212.457031 145.898438 211.59375 C 147.757812 208.671875 149.09375 206.550781 148.636719 205.023438 C 148.296875 203.890625 146.933594 202.816406 144.339844 201.648438 C 144.152344 201.558594 144.019531 201.417969 143.949219 201.222656 C 143.878906 201.03125 143.882812 200.839844 143.96875 200.648438 C 144.054688 200.460938 144.191406 200.328125 144.386719 200.253906 C 144.578125 200.179688 144.769531 200.183594 144.960938 200.265625 C 148.027344 201.65625 149.609375 202.984375 150.089844 204.589844 C 150.746094 206.785156 149.25 209.144531 147.179688 212.40625 C 146.636719 213.261719 146.046875 214.1875 145.4375 215.203125 C 144.832031 216.21875 143.140625 218.632812 140.871094 218.855469 C 140.753906 218.867188 140.636719 218.875 140.519531 218.875 Z M 140.519531 218.875 " fill-opacity="1" fill-rule="nonzero"/><path fill="#ffffff" d="M 141.175781 215.847656 C 141.011719 215.847656 140.867188 215.800781 140.738281 215.707031 L 140.34375 215.433594 C 139.75 215.039062 139.203125 214.585938 138.707031 214.070312 C 138.574219 213.925781 138.507812 213.75 138.511719 213.550781 C 138.515625 213.351562 138.585938 213.179688 138.726562 213.039062 C 138.863281 212.894531 139.03125 212.816406 139.230469 212.808594 C 139.429688 212.796875 139.605469 212.855469 139.757812 212.984375 C 140.195312 213.441406 140.679688 213.84375 141.210938 214.191406 L 141.605469 214.46875 C 141.742188 214.566406 141.835938 214.691406 141.890625 214.847656 C 141.941406 215.003906 141.945312 215.160156 141.894531 215.320312 C 141.84375 215.476562 141.75 215.601562 141.617188 215.699219 C 141.484375 215.796875 141.335938 215.847656 141.171875 215.847656 Z M 141.175781 215.847656 " fill-opacity="1" fill-rule="nonzero"/><path fill="#ffffff" d="M 142.878906 213.039062 C 142.714844 213.039062 142.566406 212.992188 142.433594 212.898438 C 141.671875 212.386719 140.96875 211.800781 140.332031 211.140625 L 140.171875 210.984375 C 140.019531 210.839844 139.945312 210.660156 139.941406 210.449219 C 139.9375 210.242188 140.011719 210.0625 140.15625 209.910156 C 140.300781 209.761719 140.480469 209.683594 140.691406 209.683594 C 140.898438 209.679688 141.078125 209.75 141.230469 209.898438 L 141.390625 210.054688 C 141.972656 210.664062 142.617188 211.199219 143.320312 211.660156 C 143.453125 211.757812 143.546875 211.882812 143.597656 212.039062 C 143.648438 212.195312 143.648438 212.351562 143.597656 212.507812 C 143.546875 212.664062 143.457031 212.789062 143.324219 212.886719 C 143.191406 212.984375 143.042969 213.03125 142.878906 213.035156 Z M 142.878906 213.039062 " fill-opacity="1" fill-rule="nonzero"/><path fill="#ffffff" d="M 144.507812 210.289062 C 144.386719 210.292969 144.269531 210.265625 144.160156 210.207031 L 143.945312 210.097656 C 142.84375 209.53125 142.734375 209.46875 141.644531 208.652344 C 141.476562 208.523438 141.378906 208.355469 141.347656 208.148438 C 141.320312 207.941406 141.367188 207.753906 141.492188 207.585938 C 141.621094 207.421875 141.789062 207.324219 141.996094 207.296875 C 142.203125 207.265625 142.390625 207.3125 142.558594 207.4375 C 143.570312 208.203125 143.589844 208.210938 144.644531 208.75 L 144.855469 208.859375 C 145.011719 208.9375 145.128906 209.058594 145.203125 209.21875 C 145.273438 209.378906 145.289062 209.542969 145.25 209.710938 C 145.207031 209.882812 145.117188 210.023438 144.980469 210.128906 C 144.839844 210.238281 144.683594 210.292969 144.507812 210.289062 Z M 144.507812 210.289062 " fill-opacity="1" fill-rule="nonzero"/><path fill="#ffffff" d="M 146.367188 207.183594 C 146.253906 207.183594 146.144531 207.160156 146.042969 207.109375 C 145.339844 206.792969 144.65625 206.433594 143.992188 206.039062 L 143.699219 205.863281 C 143.515625 205.757812 143.398438 205.605469 143.34375 205.402344 C 143.292969 205.199219 143.316406 205.007812 143.421875 204.828125 C 143.527344 204.648438 143.679688 204.527344 143.882812 204.476562 C 144.085938 204.421875 144.277344 204.445312 144.457031 204.550781 L 144.753906 204.722656 C 145.378906 205.101562 146.023438 205.445312 146.691406 205.746094 C 146.847656 205.824219 146.96875 205.941406 147.042969 206.101562 C 147.121094 206.261719 147.140625 206.425781 147.101562 206.597656 C 147.0625 206.769531 146.972656 206.910156 146.835938 207.023438 C 146.699219 207.132812 146.542969 207.1875 146.363281 207.1875 Z M 146.367188 207.183594 " fill-opacity="1" fill-rule="nonzero"/><path fill="#ffffff" d="M 142.425781 242.234375 C 138.851562 242.238281 135.367188 241.699219 131.964844 240.613281 C 124.023438 238.089844 113.453125 232.164062 108.222656 218.269531 L 108.046875 217.824219 C 107.960938 217.628906 107.960938 217.433594 108.039062 217.234375 C 108.121094 217.035156 108.261719 216.894531 108.460938 216.816406 C 108.660156 216.734375 108.855469 216.738281 109.054688 216.828125 C 109.25 216.914062 109.382812 217.058594 109.457031 217.261719 L 109.628906 217.738281 C 114.644531 231.066406 124.785156 236.746094 132.417969 239.167969 C 142.796875 242.464844 151.25 239.8125 156.847656 238.058594 C 158.03125 237.6875 159.066406 237.363281 159.949219 237.152344 C 160.148438 237.113281 160.332031 237.148438 160.503906 237.257812 C 160.671875 237.367188 160.78125 237.523438 160.828125 237.71875 C 160.875 237.917969 160.847656 238.101562 160.742188 238.277344 C 160.640625 238.453125 160.492188 238.566406 160.296875 238.621094 C 159.441406 238.828125 158.4375 239.144531 157.292969 239.503906 C 153.746094 240.621094 148.601562 242.234375 142.425781 242.234375 Z M 142.425781 242.234375 " fill-opacity="1" fill-rule="nonzero"/><path fill="#ffffff" d="M 161.535156 238.34375 C 161.375 238.34375 161.230469 238.296875 161.097656 238.203125 C 160.96875 238.113281 160.875 237.992188 160.820312 237.839844 L 160.632812 237.289062 C 160.558594 237.09375 160.566406 236.898438 160.65625 236.710938 C 160.742188 236.519531 160.886719 236.386719 161.082031 236.316406 C 161.28125 236.242188 161.472656 236.25 161.664062 236.339844 C 161.855469 236.429688 161.984375 236.570312 162.058594 236.769531 L 162.253906 237.320312 C 162.328125 237.519531 162.316406 237.710938 162.230469 237.898438 C 162.140625 238.089844 161.996094 238.21875 161.800781 238.289062 C 161.714844 238.324219 161.625 238.339844 161.535156 238.34375 Z M 161.535156 238.34375 " fill-opacity="1" fill-rule="nonzero"/><path fill="#ffffff" d="M 127.351562 238.265625 C 127.058594 238.265625 126.839844 238.136719 126.695312 237.882812 C 126.550781 237.628906 126.550781 237.378906 126.699219 237.125 C 128.035156 234.839844 129.066406 233.097656 129.933594 231.636719 C 132.734375 226.914062 133.785156 225.144531 137.679688 217.386719 C 137.773438 217.199219 137.921875 217.070312 138.121094 217.007812 C 138.320312 216.941406 138.511719 216.953125 138.699219 217.046875 C 138.886719 217.140625 139.011719 217.289062 139.078125 217.488281 C 139.144531 217.6875 139.128906 217.878906 139.035156 218.066406 C 135.117188 225.871094 134.058594 227.652344 131.238281 232.414062 C 130.367188 233.867188 129.339844 235.609375 128.007812 237.886719 C 127.863281 238.140625 127.644531 238.265625 127.351562 238.265625 Z M 127.351562 238.265625 " fill-opacity="1" fill-rule="nonzero"/><path fill="#ffffff" d="M 147.515625 202.945312 C 147.378906 202.949219 147.253906 202.914062 147.136719 202.84375 C 146.953125 202.738281 146.832031 202.582031 146.78125 202.378906 C 146.726562 202.175781 146.753906 201.980469 146.863281 201.800781 L 151.710938 193.460938 C 151.816406 193.289062 151.972656 193.175781 152.171875 193.125 C 152.371094 193.078125 152.558594 193.105469 152.734375 193.207031 C 152.914062 193.3125 153.027344 193.460938 153.082031 193.660156 C 153.140625 193.855469 153.117188 194.046875 153.019531 194.226562 L 148.171875 202.5625 C 148.027344 202.816406 147.808594 202.945312 147.515625 202.945312 Z M 147.515625 202.945312 " fill-opacity="1" fill-rule="nonzero"/><g clip-path="url(#2beb238978)"><path fill="#ffffff" d="M 151.429688 193.289062 L 151.394531 193.289062 C 151.183594 193.28125 151.007812 193.199219 150.867188 193.042969 C 150.726562 192.886719 150.664062 192.707031 150.671875 192.5 C 151.390625 177.304688 162.589844 176.851562 170.765625 176.523438 C 172.542969 176.453125 174.222656 176.386719 175.65625 176.175781 C 179.011719 175.699219 181.617188 174.226562 183.402344 171.808594 C 184.308594 170.554688 184.945312 169.179688 185.320312 167.679688 C 185.691406 166.179688 185.769531 164.664062 185.558594 163.132812 C 185.523438 162.925781 185.566406 162.734375 185.691406 162.566406 C 185.816406 162.394531 185.980469 162.292969 186.1875 162.261719 C 186.394531 162.230469 186.582031 162.277344 186.753906 162.398438 C 186.921875 162.523438 187.023438 162.6875 187.058594 162.894531 C 187.464844 165.488281 187.042969 169.429688 184.621094 172.703125 C 182.617188 175.425781 179.589844 177.144531 175.867188 177.679688 C 174.363281 177.894531 172.644531 177.964844 170.824219 178.035156 C 162.394531 178.382812 152.835938 178.765625 152.183594 192.566406 C 152.175781 192.769531 152.097656 192.941406 151.953125 193.078125 C 151.804688 193.21875 151.632812 193.289062 151.429688 193.289062 Z M 151.429688 193.289062 " fill-opacity="1" fill-rule="nonzero"/></g><g fill="#5e17eb" fill-opacity="1"><g transform="translate(181.053669, 221.561601)"><g><path d="M 10.6875 0 C 9.050781 0 7.734375 -0.128906 6.734375 -0.390625 C 5.734375 -0.660156 4.960938 -1.035156 4.421875 -1.515625 C 3.878906 -2.003906 3.507812 -2.597656 3.3125 -3.296875 C 3.125 -4.003906 2.988281 -4.796875 2.90625 -5.671875 C 2.8125 -6.703125 2.742188 -8.0625 2.703125 -9.75 C 2.660156 -11.4375 2.640625 -13.1875 2.640625 -15 C 2.640625 -15.882812 2.644531 -16.816406 2.65625 -17.796875 C 2.675781 -18.773438 2.691406 -19.738281 2.703125 -20.6875 C 2.722656 -21.644531 2.742188 -22.535156 2.765625 -23.359375 C 2.796875 -24.179688 2.84375 -24.882812 2.90625 -25.46875 C 2.988281 -26.382812 3.132812 -27.207031 3.34375 -27.9375 C 3.550781 -28.675781 3.941406 -29.304688 4.515625 -29.828125 C 5.085938 -30.359375 5.890625 -30.757812 6.921875 -31.03125 C 7.960938 -31.3125 9.351562 -31.453125 11.09375 -31.453125 C 15.019531 -31.453125 17.957031 -30.726562 19.90625 -29.28125 C 21.863281 -27.832031 22.84375 -25.769531 22.84375 -23.09375 C 22.84375 -21.71875 22.539062 -20.441406 21.9375 -19.265625 C 21.332031 -18.097656 20.296875 -17.21875 18.828125 -16.625 C 19.648438 -16.476562 20.398438 -16.171875 21.078125 -15.703125 C 21.753906 -15.234375 22.332031 -14.671875 22.8125 -14.015625 C 23.300781 -13.359375 23.664062 -12.625 23.90625 -11.8125 C 24.15625 -11.007812 24.28125 -10.195312 24.28125 -9.375 C 24.28125 -8.3125 24.0625 -7.226562 23.625 -6.125 C 23.1875 -5.03125 22.4375 -4.03125 21.375 -3.125 C 20.320312 -2.21875 18.921875 -1.46875 17.171875 -0.875 C 15.429688 -0.289062 13.269531 0 10.6875 0 Z M 19.890625 -9.5 C 19.890625 -10.5625 19.644531 -11.414062 19.15625 -12.0625 C 18.675781 -12.707031 18.050781 -13.195312 17.28125 -13.53125 C 16.519531 -13.863281 15.671875 -14.085938 14.734375 -14.203125 C 13.796875 -14.328125 12.859375 -14.390625 11.921875 -14.390625 C 11.191406 -14.390625 10.429688 -14.390625 9.640625 -14.390625 C 8.847656 -14.390625 8.113281 -14.375 7.4375 -14.34375 C 7.40625 -13.726562 7.375 -13.097656 7.34375 -12.453125 C 7.3125 -11.804688 7.289062 -11.195312 7.28125 -10.625 C 7.269531 -10.050781 7.265625 -9.550781 7.265625 -9.125 C 7.265625 -8.695312 7.265625 -8.398438 7.265625 -8.234375 C 7.265625 -7.441406 7.320312 -6.78125 7.4375 -6.25 C 7.550781 -5.71875 7.769531 -5.289062 8.09375 -4.96875 C 8.414062 -4.644531 8.878906 -4.414062 9.484375 -4.28125 C 10.085938 -4.15625 10.859375 -4.09375 11.796875 -4.09375 C 14.367188 -4.09375 16.359375 -4.546875 17.765625 -5.453125 C 19.179688 -6.359375 19.890625 -7.707031 19.890625 -9.5 Z M 11.75 -27.28125 C 10.78125 -27.28125 9.992188 -27.195312 9.390625 -27.03125 C 8.785156 -26.875 8.328125 -26.660156 8.015625 -26.390625 C 7.710938 -26.128906 7.507812 -25.804688 7.40625 -25.421875 C 7.3125 -25.046875 7.265625 -24.640625 7.265625 -24.203125 L 7.265625 -18.046875 C 7.671875 -18.015625 8.097656 -18 8.546875 -18 C 9.003906 -18 9.441406 -18 9.859375 -18 C 10.910156 -18 11.941406 -18.070312 12.953125 -18.21875 C 13.960938 -18.363281 14.878906 -18.609375 15.703125 -18.953125 C 16.523438 -19.304688 17.1875 -19.789062 17.6875 -20.40625 C 18.1875 -21.03125 18.4375 -21.828125 18.4375 -22.796875 C 18.4375 -24.109375 17.898438 -25.179688 16.828125 -26.015625 C 15.753906 -26.859375 14.0625 -27.28125 11.75 -27.28125 Z M 11.75 -27.28125 "/></g></g></g><g fill="#5e17eb" fill-opacity="1"><g transform="translate(206.657111, 221.561601)"><g><path d="M 2.953125 -2.546875 C 2.921875 -3.609375 2.890625 -4.84375 2.859375 -6.25 C 2.828125 -7.65625 2.800781 -9.175781 2.78125 -10.8125 C 2.769531 -12.457031 2.757812 -14.191406 2.75 -16.015625 C 2.738281 -17.835938 2.734375 -19.703125 2.734375 -21.609375 C 2.734375 -23.691406 2.742188 -25.476562 2.765625 -26.96875 C 2.796875 -28.46875 2.878906 -29.703125 3.015625 -30.671875 C 3.148438 -31.640625 3.363281 -32.347656 3.65625 -32.796875 C 3.945312 -33.253906 4.359375 -33.484375 4.890625 -33.484375 C 5.378906 -33.484375 5.816406 -33.320312 6.203125 -33 C 6.585938 -32.675781 6.804688 -31.925781 6.859375 -30.75 C 6.984375 -28.644531 7.054688 -26.453125 7.078125 -24.171875 C 7.109375 -21.898438 7.125 -19.664062 7.125 -17.46875 C 7.125 -16.144531 7.125 -14.875 7.125 -13.65625 C 7.125 -12.445312 7.109375 -11.242188 7.078125 -10.046875 C 7.054688 -8.859375 7.03125 -7.648438 7 -6.421875 C 6.96875 -5.191406 6.921875 -3.914062 6.859375 -2.59375 C 6.828125 -1.894531 6.757812 -1.351562 6.65625 -0.96875 C 6.5625 -0.582031 6.425781 -0.285156 6.25 -0.078125 C 6.070312 0.117188 5.875 0.238281 5.65625 0.28125 C 5.4375 0.332031 5.179688 0.359375 4.890625 0.359375 C 4.359375 0.359375 3.914062 0.175781 3.5625 -0.1875 C 3.207031 -0.5625 3.003906 -1.347656 2.953125 -2.546875 Z M 2.953125 -2.546875 "/></g></g></g><g fill="#5e17eb" fill-opacity="1"><g transform="translate(216.511354, 221.561601)"><g><path d="M 12.84375 -22.3125 C 14.519531 -22.3125 16.015625 -22.050781 17.328125 -21.53125 C 18.648438 -21.019531 19.773438 -20.296875 20.703125 -19.359375 C 21.628906 -18.421875 22.335938 -17.273438 22.828125 -15.921875 C 23.328125 -14.578125 23.578125 -13.066406 23.578125 -11.390625 C 23.578125 -9.546875 23.289062 -7.890625 22.71875 -6.421875 C 22.15625 -4.953125 21.363281 -3.703125 20.34375 -2.671875 C 19.332031 -1.648438 18.128906 -0.859375 16.734375 -0.296875 C 15.347656 0.253906 13.832031 0.53125 12.1875 0.53125 C 10.394531 0.53125 8.816406 0.222656 7.453125 -0.390625 C 6.085938 -1.003906 4.941406 -1.835938 4.015625 -2.890625 C 3.097656 -3.953125 2.40625 -5.171875 1.9375 -6.546875 C 1.46875 -7.929688 1.234375 -9.382812 1.234375 -10.90625 C 1.234375 -12.582031 1.503906 -14.113281 2.046875 -15.5 C 2.585938 -16.894531 3.363281 -18.097656 4.375 -19.109375 C 5.382812 -20.128906 6.609375 -20.914062 8.046875 -21.46875 C 9.484375 -22.03125 11.082031 -22.3125 12.84375 -22.3125 Z M 12.359375 -3.515625 C 13.566406 -3.515625 14.59375 -3.726562 15.4375 -4.15625 C 16.289062 -4.582031 16.988281 -5.144531 17.53125 -5.84375 C 18.070312 -6.550781 18.46875 -7.351562 18.71875 -8.25 C 18.96875 -9.144531 19.09375 -10.078125 19.09375 -11.046875 C 19.09375 -12.046875 18.96875 -12.976562 18.71875 -13.84375 C 18.46875 -14.707031 18.085938 -15.460938 17.578125 -16.109375 C 17.066406 -16.753906 16.40625 -17.257812 15.59375 -17.625 C 14.789062 -17.988281 13.832031 -18.171875 12.71875 -18.171875 C 11.570312 -18.171875 10.570312 -17.976562 9.71875 -17.59375 C 8.875 -17.21875 8.164062 -16.695312 7.59375 -16.03125 C 7.019531 -15.375 6.585938 -14.585938 6.296875 -13.671875 C 6.003906 -12.765625 5.859375 -11.785156 5.859375 -10.734375 C 5.859375 -8.597656 6.40625 -6.859375 7.5 -5.515625 C 8.601562 -4.179688 10.222656 -3.515625 12.359375 -3.515625 Z M 12.359375 -3.515625 "/></g></g></g><g fill="#5e17eb" fill-opacity="1"><g transform="translate(241.762878, 221.561601)"><g><path d="M 11.359375 6.03125 C 12.734375 6.03125 13.894531 5.757812 14.84375 5.21875 C 15.800781 4.675781 16.570312 3.894531 17.15625 2.875 C 17.75 1.863281 18.164062 0.648438 18.40625 -0.765625 C 18.65625 -2.191406 18.78125 -3.800781 18.78125 -5.59375 C 18.519531 -4.65625 18.140625 -3.863281 17.640625 -3.21875 C 17.140625 -2.570312 16.5625 -2.050781 15.90625 -1.65625 C 15.25 -1.257812 14.507812 -0.972656 13.6875 -0.796875 C 12.863281 -0.617188 12.007812 -0.53125 11.125 -0.53125 C 9.78125 -0.53125 8.503906 -0.71875 7.296875 -1.09375 C 6.097656 -1.476562 5.050781 -2.082031 4.15625 -2.90625 C 3.257812 -3.726562 2.546875 -4.773438 2.015625 -6.046875 C 1.492188 -7.328125 1.234375 -8.859375 1.234375 -10.640625 C 1.234375 -12.378906 1.488281 -13.972656 2 -15.421875 C 2.507812 -16.867188 3.253906 -18.117188 4.234375 -19.171875 C 5.222656 -20.234375 6.421875 -21.054688 7.828125 -21.640625 C 9.234375 -22.234375 10.847656 -22.53125 12.671875 -22.53125 C 13.640625 -22.53125 14.5 -22.441406 15.25 -22.265625 C 16 -22.085938 16.664062 -21.851562 17.25 -21.5625 C 17.832031 -21.269531 18.347656 -20.914062 18.796875 -20.5 C 19.253906 -20.09375 19.675781 -19.65625 20.0625 -19.1875 C 21.175781 -17.78125 21.984375 -16.113281 22.484375 -14.1875 C 22.984375 -12.269531 23.234375 -9.960938 23.234375 -7.265625 C 23.234375 -5.265625 23.0625 -3.222656 22.71875 -1.140625 C 22.382812 0.941406 21.773438 2.828125 20.890625 4.515625 C 20.015625 6.203125 18.800781 7.578125 17.25 8.640625 C 15.695312 9.710938 13.703125 10.25 11.265625 10.25 C 10.828125 10.25 10.332031 10.226562 9.78125 10.1875 C 9.238281 10.144531 8.679688 10.078125 8.109375 9.984375 C 7.546875 9.898438 6.984375 9.773438 6.421875 9.609375 C 5.867188 9.453125 5.359375 9.238281 4.890625 8.96875 C 4.296875 8.644531 3.820312 8.335938 3.46875 8.046875 C 3.125 7.753906 2.953125 7.269531 2.953125 6.59375 C 2.953125 6.039062 3.078125 5.535156 3.328125 5.078125 C 3.578125 4.628906 4.007812 4.40625 4.625 4.40625 C 4.914062 4.40625 5.234375 4.488281 5.578125 4.65625 C 5.929688 4.832031 6.363281 5.015625 6.875 5.203125 C 7.394531 5.398438 8.015625 5.585938 8.734375 5.765625 C 9.453125 5.941406 10.328125 6.03125 11.359375 6.03125 Z M 11.578125 -4.53125 C 12.710938 -4.53125 13.679688 -4.742188 14.484375 -5.171875 C 15.296875 -5.597656 15.957031 -6.160156 16.46875 -6.859375 C 16.988281 -7.566406 17.375 -8.359375 17.625 -9.234375 C 17.875 -10.117188 18 -11 18 -11.875 C 18 -12.613281 17.898438 -13.351562 17.703125 -14.09375 C 17.515625 -14.84375 17.203125 -15.523438 16.765625 -16.140625 C 16.328125 -16.765625 15.722656 -17.265625 14.953125 -17.640625 C 14.191406 -18.023438 13.238281 -18.21875 12.09375 -18.21875 C 10.164062 -18.21875 8.601562 -17.628906 7.40625 -16.453125 C 6.21875 -15.285156 5.625 -13.554688 5.625 -11.265625 C 5.625 -9.117188 6.148438 -7.457031 7.203125 -6.28125 C 8.265625 -5.113281 9.722656 -4.53125 11.578125 -4.53125 Z M 11.578125 -4.53125 "/></g></g></g><g fill="#5e17eb" fill-opacity="1"><g transform="translate(11.48049, 181.286604)"><g><path d="M 3.546875 -2.765625 C 2.410156 -3.847656 1.703125 -5.132812 1.421875 -6.625 C 1.140625 -8.113281 1.0625 -9.648438 1.1875 -11.234375 C 1.320312 -12.828125 1.414062 -14.316406 1.46875 -15.703125 L 1.921875 -32.1875 C 1.972656 -33.976562 2 -35.796875 2 -37.640625 C 2 -39.492188 2.101562 -41.28125 2.3125 -43 C 2.519531 -44.71875 2.957031 -46.242188 3.625 -47.578125 C 4.289062 -48.921875 5.316406 -49.953125 6.703125 -50.671875 C 8.085938 -51.390625 9.957031 -51.695312 12.3125 -51.59375 C 13.550781 -51.539062 15.054688 -51.5 16.828125 -51.46875 C 18.597656 -51.445312 20.441406 -51.367188 22.359375 -51.234375 C 24.285156 -51.109375 26.144531 -50.835938 27.9375 -50.421875 C 29.738281 -50.015625 31.304688 -49.363281 32.640625 -48.46875 C 33.984375 -47.570312 34.910156 -46.351562 35.421875 -44.8125 C 36.140625 -42.757812 36.097656 -41.15625 35.296875 -40 C 34.503906 -38.84375 33.335938 -38.019531 31.796875 -37.53125 C 30.253906 -37.050781 28.625 -36.769531 26.90625 -36.6875 C 25.1875 -36.613281 23.710938 -36.628906 22.484375 -36.734375 C 21.660156 -36.785156 20.707031 -36.859375 19.625 -36.953125 C 18.550781 -37.054688 17.550781 -37.03125 16.625 -36.875 C 15.707031 -36.726562 15.015625 -36.320312 14.546875 -35.65625 C 13.828125 -34.625 13.570312 -33.773438 13.78125 -33.109375 C 13.988281 -32.441406 14.476562 -31.925781 15.25 -31.5625 C 16.019531 -31.207031 16.835938 -31.003906 17.703125 -30.953125 C 19.554688 -30.796875 21.203125 -30.523438 22.640625 -30.140625 C 24.078125 -29.753906 25.140625 -29.019531 25.828125 -27.9375 C 26.523438 -26.863281 26.691406 -25.222656 26.328125 -23.015625 C 25.816406 -19.890625 24.570312 -17.679688 22.59375 -16.390625 C 20.625 -15.109375 18.097656 -14.957031 15.015625 -15.9375 C 15.015625 -14.8125 14.9375 -13.347656 14.78125 -11.546875 C 14.625 -9.753906 14.316406 -7.957031 13.859375 -6.15625 C 13.398438 -4.363281 12.734375 -2.875 11.859375 -1.6875 C 10.984375 -0.507812 9.863281 0.0625 8.5 0.03125 C 7.144531 0.0078125 5.492188 -0.921875 3.546875 -2.765625 Z M 3.546875 -2.765625 "/></g></g></g><g fill="#5e17eb" fill-opacity="1"><g transform="translate(47.358882, 181.286604)"><g><path d="M 41.5 -2.625 C 39.8125 -0.976562 38.269531 -0.101562 36.875 0 C 35.488281 0.101562 34.242188 -0.34375 33.140625 -1.34375 C 32.046875 -2.34375 31.085938 -3.664062 30.265625 -5.3125 C 29.441406 -6.957031 28.734375 -8.710938 28.140625 -10.578125 C 27.554688 -12.453125 27.082031 -14.222656 26.71875 -15.890625 C 26.363281 -17.566406 26.082031 -18.863281 25.875 -19.78125 C 25.457031 -19.6875 24.75 -19.5625 23.75 -19.40625 C 22.75 -19.25 21.785156 -19.066406 20.859375 -18.859375 C 19.941406 -18.660156 19.328125 -18.40625 19.015625 -18.09375 C 18.660156 -17.738281 18.457031 -17.035156 18.40625 -15.984375 C 18.351562 -14.929688 18.273438 -14.144531 18.171875 -13.625 C 17.816406 -12.132812 17.421875 -10.617188 16.984375 -9.078125 C 16.546875 -7.546875 15.8125 -6.160156 14.78125 -4.921875 C 13.445312 -3.335938 11.921875 -2.398438 10.203125 -2.109375 C 8.484375 -1.828125 6.878906 -2.148438 5.390625 -3.078125 C 3.898438 -4.003906 2.796875 -5.414062 2.078125 -7.3125 C 1.304688 -9.414062 1 -11.75 1.15625 -14.3125 C 1.3125 -16.882812 1.601562 -19.46875 2.03125 -22.0625 C 2.46875 -24.65625 2.765625 -27.03125 2.921875 -29.1875 C 3.179688 -32.726562 3.234375 -36.359375 3.078125 -40.078125 C 2.921875 -43.796875 3.128906 -47.375 3.703125 -50.8125 C 4.054688 -52.96875 4.925781 -54.675781 6.3125 -55.9375 C 7.695312 -57.195312 9.425781 -58.082031 11.5 -58.59375 C 13.582031 -59.101562 15.832031 -59.347656 18.25 -59.328125 C 20.664062 -59.304688 23.066406 -59.0625 25.453125 -58.59375 C 27.835938 -58.132812 30.03125 -57.53125 32.03125 -56.78125 C 34.03125 -56.039062 35.671875 -55.257812 36.953125 -54.4375 C 39.679688 -52.695312 41.632812 -50.644531 42.8125 -48.28125 C 43.988281 -45.914062 44.515625 -43.445312 44.390625 -40.875 C 44.265625 -38.3125 43.554688 -35.785156 42.265625 -33.296875 C 40.984375 -30.804688 39.265625 -28.5625 37.109375 -26.5625 C 38.035156 -25.125 39.078125 -23.378906 40.234375 -21.328125 C 41.390625 -19.273438 42.351562 -17.101562 43.125 -14.8125 C 43.894531 -12.53125 44.226562 -10.320312 44.125 -8.1875 C 44.019531 -6.0625 43.144531 -4.207031 41.5 -2.625 Z M 17.78125 -29.40625 C 19.269531 -29.976562 20.734375 -30.597656 22.171875 -31.265625 C 23.609375 -31.929688 24.96875 -32.726562 26.25 -33.65625 C 27.945312 -34.832031 28.894531 -36 29.09375 -37.15625 C 29.300781 -38.3125 29.019531 -39.363281 28.25 -40.3125 C 27.488281 -41.257812 26.4375 -42 25.09375 -42.53125 C 23.757812 -43.070312 22.375 -43.296875 20.9375 -43.203125 C 19.8125 -43.148438 18.875 -43.046875 18.125 -42.890625 C 17.382812 -42.734375 16.863281 -42.144531 16.5625 -41.125 C 16.25 -40.195312 16.179688 -39 16.359375 -37.53125 C 16.535156 -36.070312 16.789062 -34.609375 17.125 -33.140625 C 17.46875 -31.679688 17.6875 -30.4375 17.78125 -29.40625 Z M 17.78125 -29.40625 "/></g></g></g><g fill="#5e17eb" fill-opacity="1"><g transform="translate(92.86131, 181.286604)"><g><path d="M 5.921875 -0.46875 C 3.921875 -1.03125 2.585938 -1.988281 1.921875 -3.34375 C 1.253906 -4.707031 1 -6.273438 1.15625 -8.046875 C 1.3125 -9.816406 1.628906 -11.585938 2.109375 -13.359375 C 2.597656 -15.128906 3.023438 -16.734375 3.390625 -18.171875 C 4.316406 -21.972656 5.34375 -25.757812 6.46875 -29.53125 C 7.59375 -33.300781 8.773438 -37.0625 10.015625 -40.8125 C 11.035156 -43.988281 12.519531 -46.566406 14.46875 -48.546875 C 16.425781 -50.523438 19.203125 -51.566406 22.796875 -51.671875 C 24.796875 -51.722656 26.4375 -51.242188 27.71875 -50.234375 C 29 -49.234375 30.035156 -47.925781 30.828125 -46.3125 C 31.628906 -44.695312 32.3125 -42.988281 32.875 -41.1875 C 33.4375 -39.394531 33.976562 -37.726562 34.5 -36.1875 L 43.5 -10.859375 C 44.113281 -9.160156 44.394531 -7.644531 44.34375 -6.3125 C 44.300781 -4.976562 43.535156 -3.695312 42.046875 -2.46875 C 40.554688 -1.28125 39.117188 -0.738281 37.734375 -0.84375 C 36.347656 -0.945312 35.113281 -1.796875 34.03125 -3.390625 C 33.519531 -4.160156 33.097656 -5.132812 32.765625 -6.3125 C 32.429688 -7.488281 32.070312 -8.640625 31.6875 -9.765625 C 31.300781 -10.898438 30.75 -11.75 30.03125 -12.3125 C 29.925781 -12.414062 29.296875 -12.519531 28.140625 -12.625 C 26.984375 -12.726562 25.648438 -12.816406 24.140625 -12.890625 C 22.628906 -12.972656 21.242188 -13 19.984375 -12.96875 C 18.722656 -12.945312 17.941406 -12.804688 17.640625 -12.546875 C 16.921875 -11.929688 16.414062 -10.957031 16.125 -9.625 C 15.84375 -8.289062 15.585938 -6.914062 15.359375 -5.5 C 15.128906 -4.09375 14.679688 -2.976562 14.015625 -2.15625 C 13.085938 -1.03125 11.851562 -0.363281 10.3125 -0.15625 C 8.78125 0.0507812 7.316406 -0.0507812 5.921875 -0.46875 Z M 21.171875 -23.484375 C 21.890625 -23.585938 22.59375 -23.710938 23.28125 -23.859375 C 23.976562 -24.015625 24.660156 -24.144531 25.328125 -24.25 C 24.972656 -25.28125 24.628906 -26.304688 24.296875 -27.328125 C 23.960938 -28.359375 23.640625 -29.390625 23.328125 -30.421875 C 22.972656 -29.285156 22.613281 -28.140625 22.25 -26.984375 C 21.894531 -25.828125 21.535156 -24.660156 21.171875 -23.484375 Z M 21.171875 -23.484375 "/></g></g></g><g fill="#5e17eb" fill-opacity="1"><g transform="translate(138.440733, 181.286604)"><g><path d="M 3.625 -1.46875 C 2.75 -2.4375 2.128906 -3.691406 1.765625 -5.234375 C 1.410156 -6.773438 1.21875 -8.429688 1.1875 -10.203125 C 1.164062 -11.972656 1.21875 -13.691406 1.34375 -15.359375 C 1.476562 -17.023438 1.566406 -18.453125 1.609375 -19.640625 C 1.710938 -21.023438 1.765625 -22.703125 1.765625 -24.671875 C 1.765625 -26.648438 1.828125 -28.742188 1.953125 -30.953125 C 2.085938 -33.160156 2.359375 -35.316406 2.765625 -37.421875 C 3.179688 -39.523438 3.8125 -41.375 4.65625 -42.96875 C 5.5 -44.5625 6.640625 -45.71875 8.078125 -46.4375 C 9.617188 -47.207031 11.144531 -47.410156 12.65625 -47.046875 C 14.175781 -46.691406 15.578125 -46.007812 16.859375 -45 C 18.140625 -44 19.164062 -42.859375 19.9375 -41.578125 C 21.425781 -39.210938 22.695312 -36.769531 23.75 -34.25 C 24.800781 -31.738281 26.097656 -29.28125 27.640625 -26.875 C 27.585938 -28.101562 27.472656 -29.5 27.296875 -31.0625 C 27.117188 -32.632812 27.03125 -34.226562 27.03125 -35.84375 C 27.03125 -37.457031 27.222656 -38.992188 27.609375 -40.453125 C 27.992188 -41.921875 28.671875 -43.171875 29.640625 -44.203125 C 30.921875 -45.535156 32.28125 -46.210938 33.71875 -46.234375 C 35.15625 -46.265625 36.4375 -45.800781 37.5625 -44.84375 C 38.695312 -43.894531 39.367188 -42.550781 39.578125 -40.8125 C 39.929688 -38.445312 40.25 -35.75 40.53125 -32.71875 C 40.820312 -29.695312 40.953125 -26.59375 40.921875 -23.40625 C 40.898438 -20.226562 40.65625 -17.148438 40.1875 -14.171875 C 39.726562 -11.191406 38.960938 -8.546875 37.890625 -6.234375 C 36.703125 -3.722656 35.398438 -2.25 33.984375 -1.8125 C 32.578125 -1.375 31.101562 -1.640625 29.5625 -2.609375 C 28.03125 -3.585938 26.519531 -5 25.03125 -6.84375 C 23.539062 -8.695312 22.140625 -10.675781 20.828125 -12.78125 C 19.515625 -14.882812 18.359375 -16.832031 17.359375 -18.625 C 16.359375 -20.425781 15.601562 -21.765625 15.09375 -22.640625 C 14.988281 -22.128906 14.796875 -21.078125 14.515625 -19.484375 C 14.234375 -17.890625 13.859375 -16.066406 13.390625 -14.015625 C 12.929688 -11.960938 12.394531 -9.929688 11.78125 -7.921875 C 11.164062 -5.921875 10.457031 -4.203125 9.65625 -2.765625 C 8.863281 -1.328125 7.96875 -0.425781 6.96875 -0.0625 C 5.96875 0.289062 4.851562 -0.175781 3.625 -1.46875 Z M 3.625 -1.46875 "/></g></g></g><g fill="#5e17eb" fill-opacity="1"><g transform="translate(180.555502, 181.286604)"><g><path d="M 17.484375 -1 C 14.035156 -2.125 11.015625 -3.921875 8.421875 -6.390625 C 5.835938 -8.859375 3.90625 -11.785156 2.625 -15.171875 C 1.332031 -18.710938 0.863281 -22.238281 1.21875 -25.75 C 1.582031 -29.269531 2.613281 -32.582031 4.3125 -35.6875 C 6.007812 -38.789062 8.21875 -41.523438 10.9375 -43.890625 C 13.65625 -46.253906 16.734375 -48 20.171875 -49.125 C 21.554688 -49.582031 23.09375 -49.976562 24.78125 -50.3125 C 26.476562 -50.644531 28.125 -50.75 29.71875 -50.625 C 31.3125 -50.5 32.632812 -49.972656 33.6875 -49.046875 C 34.738281 -48.117188 35.316406 -46.601562 35.421875 -44.5 C 35.523438 -42.5 35.085938 -40.84375 34.109375 -39.53125 C 33.128906 -38.226562 31.859375 -37.164062 30.296875 -36.34375 C 28.734375 -35.519531 27.078125 -34.835938 25.328125 -34.296875 C 23.585938 -33.765625 21.972656 -33.265625 20.484375 -32.796875 C 19.253906 -31.617188 18.160156 -30.285156 17.203125 -28.796875 C 16.253906 -27.304688 15.640625 -25.816406 15.359375 -24.328125 C 15.078125 -22.835938 15.28125 -21.453125 15.96875 -20.171875 C 16.664062 -18.890625 18.015625 -17.8125 20.015625 -16.9375 C 21.253906 -16.425781 22.550781 -16.066406 23.90625 -15.859375 C 25.269531 -15.648438 26.578125 -15.441406 27.828125 -15.234375 C 29.085938 -15.035156 30.21875 -14.691406 31.21875 -14.203125 C 32.21875 -13.710938 32.960938 -12.96875 33.453125 -11.96875 C 33.941406 -10.96875 34.082031 -9.519531 33.875 -7.625 C 33.675781 -5.570312 33.007812 -3.96875 31.875 -2.8125 C 30.75 -1.65625 29.375 -0.867188 27.75 -0.453125 C 26.132812 -0.046875 24.425781 0.09375 22.625 -0.03125 C 20.832031 -0.164062 19.117188 -0.488281 17.484375 -1 Z M 17.484375 -1 "/></g></g></g><g fill="#5e17eb" fill-opacity="1"><g transform="translate(217.126824, 181.286604)"><g><path d="M 1.390625 -48.59375 C 0.972656 -50.125 1.046875 -51.660156 1.609375 -53.203125 C 2.179688 -54.742188 3.066406 -56.117188 4.265625 -57.328125 C 5.472656 -58.535156 6.820312 -59.34375 8.3125 -59.75 C 8.925781 -59.90625 9.722656 -59.941406 10.703125 -59.859375 C 11.679688 -59.785156 12.65625 -59.554688 13.625 -59.171875 C 14.601562 -58.785156 15.359375 -58.257812 15.890625 -57.59375 C 16.429688 -56.925781 16.550781 -56.101562 16.25 -55.125 C 16.757812 -53.59375 16.679688 -52.039062 16.015625 -50.46875 C 15.347656 -48.90625 14.347656 -47.546875 13.015625 -46.390625 C 11.679688 -45.234375 10.226562 -44.445312 8.65625 -44.03125 C 7.09375 -43.625 5.644531 -43.753906 4.3125 -44.421875 C 2.976562 -45.097656 2.003906 -46.488281 1.390625 -48.59375 Z M 11.46875 -1.078125 C 9.78125 0.0976562 8.140625 0.328125 6.546875 -0.390625 C 4.953125 -1.109375 3.742188 -2.3125 2.921875 -4 C 2.148438 -5.644531 1.648438 -7.53125 1.421875 -9.65625 C 1.191406 -11.789062 1.113281 -14.007812 1.1875 -16.3125 C 1.269531 -18.625 1.410156 -20.882812 1.609375 -23.09375 C 1.816406 -25.300781 2 -27.253906 2.15625 -28.953125 C 2.257812 -30.023438 2.363281 -31.265625 2.46875 -32.671875 C 2.570312 -34.085938 2.800781 -35.488281 3.15625 -36.875 C 3.519531 -38.269531 4.082031 -39.375 4.84375 -40.1875 C 5.976562 -41.375 7.160156 -41.925781 8.390625 -41.84375 C 9.617188 -41.769531 10.785156 -41.304688 11.890625 -40.453125 C 12.992188 -39.609375 13.832031 -38.546875 14.40625 -37.265625 C 15.6875 -34.492188 16.414062 -31.398438 16.59375 -27.984375 C 16.769531 -24.578125 16.628906 -21.148438 16.171875 -17.703125 C 15.710938 -14.265625 15.195312 -11.109375 14.625 -8.234375 C 14.375 -6.953125 14.082031 -5.65625 13.75 -4.34375 C 13.414062 -3.039062 12.65625 -1.953125 11.46875 -1.078125 Z M 11.46875 -1.078125 "/></g></g></g><g fill="#5e17eb" fill-opacity="1"><g transform="translate(234.91204, 181.286604)"><g><path d="M 3.625 -1.46875 C 2.75 -2.4375 2.128906 -3.691406 1.765625 -5.234375 C 1.410156 -6.773438 1.21875 -8.429688 1.1875 -10.203125 C 1.164062 -11.972656 1.21875 -13.691406 1.34375 -15.359375 C 1.476562 -17.023438 1.566406 -18.453125 1.609375 -19.640625 C 1.710938 -21.023438 1.765625 -22.703125 1.765625 -24.671875 C 1.765625 -26.648438 1.828125 -28.742188 1.953125 -30.953125 C 2.085938 -33.160156 2.359375 -35.316406 2.765625 -37.421875 C 3.179688 -39.523438 3.8125 -41.375 4.65625 -42.96875 C 5.5 -44.5625 6.640625 -45.71875 8.078125 -46.4375 C 9.617188 -47.207031 11.144531 -47.410156 12.65625 -47.046875 C 14.175781 -46.691406 15.578125 -46.007812 16.859375 -45 C 18.140625 -44 19.164062 -42.859375 19.9375 -41.578125 C 21.425781 -39.210938 22.695312 -36.769531 23.75 -34.25 C 24.800781 -31.738281 26.097656 -29.28125 27.640625 -26.875 C 27.585938 -28.101562 27.472656 -29.5 27.296875 -31.0625 C 27.117188 -32.632812 27.03125 -34.226562 27.03125 -35.84375 C 27.03125 -37.457031 27.222656 -38.992188 27.609375 -40.453125 C 27.992188 -41.921875 28.671875 -43.171875 29.640625 -44.203125 C 30.921875 -45.535156 32.28125 -46.210938 33.71875 -46.234375 C 35.15625 -46.265625 36.4375 -45.800781 37.5625 -44.84375 C 38.695312 -43.894531 39.367188 -42.550781 39.578125 -40.8125 C 39.929688 -38.445312 40.25 -35.75 40.53125 -32.71875 C 40.820312 -29.695312 40.953125 -26.59375 40.921875 -23.40625 C 40.898438 -20.226562 40.65625 -17.148438 40.1875 -14.171875 C 39.726562 -11.191406 38.960938 -8.546875 37.890625 -6.234375 C 36.703125 -3.722656 35.398438 -2.25 33.984375 -1.8125 C 32.578125 -1.375 31.101562 -1.640625 29.5625 -2.609375 C 28.03125 -3.585938 26.519531 -5 25.03125 -6.84375 C 23.539062 -8.695312 22.140625 -10.675781 20.828125 -12.78125 C 19.515625 -14.882812 18.359375 -16.832031 17.359375 -18.625 C 16.359375 -20.425781 15.601562 -21.765625 15.09375 -22.640625 C 14.988281 -22.128906 14.796875 -21.078125 14.515625 -19.484375 C 14.234375 -17.890625 13.859375 -16.066406 13.390625 -14.015625 C 12.929688 -11.960938 12.394531 -9.929688 11.78125 -7.921875 C 11.164062 -5.921875 10.457031 -4.203125 9.65625 -2.765625 C 8.863281 -1.328125 7.96875 -0.425781 6.96875 -0.0625 C 5.96875 0.289062 4.851562 -0.175781 3.625 -1.46875 Z M 3.625 -1.46875 "/></g></g></g><g fill="#5e17eb" fill-opacity="1"><g transform="translate(277.026822, 181.286604)"><g><path d="M 12.78125 -0.15625 C 11.75 -0.15625 10.644531 -0.113281 9.46875 -0.03125 C 8.289062 0.0390625 7.148438 -0.0351562 6.046875 -0.265625 C 4.941406 -0.492188 3.953125 -1.019531 3.078125 -1.84375 C 2.148438 -2.769531 1.582031 -3.875 1.375 -5.15625 C 1.175781 -6.4375 1.128906 -7.78125 1.234375 -9.1875 C 1.335938 -10.601562 1.414062 -11.878906 1.46875 -13.015625 C 1.5625 -15.222656 1.660156 -17.414062 1.765625 -19.59375 C 1.867188 -21.78125 1.972656 -23.976562 2.078125 -26.1875 C 2.179688 -28.75 2.296875 -31.328125 2.421875 -33.921875 C 2.554688 -36.515625 2.644531 -39.09375 2.6875 -41.65625 C 2.789062 -43.09375 2.789062 -44.679688 2.6875 -46.421875 C 2.59375 -48.171875 2.800781 -49.738281 3.3125 -51.125 C 3.769531 -52.40625 4.628906 -53.367188 5.890625 -54.015625 C 7.148438 -54.660156 8.625 -55.070312 10.3125 -55.25 C 12.007812 -55.425781 13.769531 -55.445312 15.59375 -55.3125 C 17.414062 -55.1875 19.132812 -55.007812 20.75 -54.78125 C 22.363281 -54.550781 23.6875 -54.359375 24.71875 -54.203125 C 25.894531 -54.054688 27.019531 -53.828125 28.09375 -53.515625 C 29.175781 -53.203125 30.085938 -52.695312 30.828125 -52 C 31.578125 -51.3125 32.03125 -50.273438 32.1875 -48.890625 C 32.394531 -47.453125 32.160156 -46.144531 31.484375 -44.96875 C 30.816406 -43.789062 29.816406 -42.914062 28.484375 -42.34375 C 27.460938 -41.9375 26.4375 -41.8125 25.40625 -41.96875 C 24.382812 -42.125 23.359375 -42.300781 22.328125 -42.5 C 21.304688 -42.707031 20.304688 -42.679688 19.328125 -42.421875 C 18.710938 -42.316406 18.097656 -41.90625 17.484375 -41.1875 C 16.867188 -40.46875 16.519531 -39.671875 16.4375 -38.796875 C 16.363281 -37.929688 16.765625 -37.164062 17.640625 -36.5 C 18.304688 -36.039062 19.253906 -35.832031 20.484375 -35.875 C 21.710938 -35.925781 22.976562 -36.003906 24.28125 -36.109375 C 25.59375 -36.210938 26.660156 -36.113281 27.484375 -35.8125 C 28.816406 -35.289062 29.753906 -34.617188 30.296875 -33.796875 C 30.835938 -32.984375 31.160156 -31.90625 31.265625 -30.5625 C 31.460938 -28.976562 31.304688 -27.375 30.796875 -25.75 C 30.285156 -24.132812 29.179688 -23.070312 27.484375 -22.5625 C 26.460938 -22.300781 25.359375 -22.3125 24.171875 -22.59375 C 22.992188 -22.875 21.835938 -23.078125 20.703125 -23.203125 C 19.578125 -23.335938 18.578125 -22.992188 17.703125 -22.171875 C 16.628906 -21.148438 16.179688 -20.238281 16.359375 -19.4375 C 16.535156 -18.644531 17.085938 -17.96875 18.015625 -17.40625 C 18.941406 -16.84375 19.957031 -16.40625 21.0625 -16.09375 C 22.164062 -15.78125 23.078125 -15.597656 23.796875 -15.546875 C 24.867188 -15.503906 26.046875 -15.519531 27.328125 -15.59375 C 28.617188 -15.664062 29.878906 -15.640625 31.109375 -15.515625 C 32.335938 -15.390625 33.414062 -14.96875 34.34375 -14.25 C 35.21875 -13.632812 35.769531 -12.757812 36 -11.625 C 36.226562 -10.5 36.265625 -9.359375 36.109375 -8.203125 C 35.953125 -7.046875 35.722656 -6.03125 35.421875 -5.15625 C 34.648438 -3.257812 33.546875 -2.039062 32.109375 -1.5 C 30.671875 -0.957031 28.976562 -0.632812 27.03125 -0.53125 C 24.664062 -0.4375 22.300781 -0.375 19.9375 -0.34375 C 17.582031 -0.320312 15.195312 -0.257812 12.78125 -0.15625 Z M 12.78125 -0.15625 "/></g></g></g><g fill="#5e17eb" fill-opacity="1"><g transform="translate(314.368067, 181.286604)"><g><path d="M 3.84375 -33.34375 C 2.71875 -33.082031 1.972656 -33.234375 1.609375 -33.796875 C 1.253906 -34.367188 1.128906 -35.085938 1.234375 -35.953125 C 1.335938 -36.828125 1.539062 -37.625 1.84375 -38.34375 C 2.507812 -39.882812 3.28125 -41.347656 4.15625 -42.734375 C 5.03125 -44.117188 6.335938 -44.890625 8.078125 -45.046875 C 9.367188 -45.148438 10.207031 -44.789062 10.59375 -43.96875 C 10.976562 -43.144531 11.078125 -42.191406 10.890625 -41.109375 C 10.710938 -40.035156 10.394531 -39.164062 9.9375 -38.5 C 9.269531 -37.519531 8.382812 -36.476562 7.28125 -35.375 C 6.175781 -34.269531 5.03125 -33.59375 3.84375 -33.34375 Z M 3.84375 -33.34375 "/></g></g></g><g fill="#5e17eb" fill-opacity="1"><g transform="translate(326.455842, 181.286604)"><g><path d="M 12.859375 -0.46875 C 11.734375 -0.664062 10.472656 -0.90625 9.078125 -1.1875 C 7.691406 -1.46875 6.382812 -1.890625 5.15625 -2.453125 C 3.925781 -3.023438 2.953125 -3.820312 2.234375 -4.84375 C 1.253906 -6.28125 0.894531 -7.585938 1.15625 -8.765625 C 1.414062 -9.953125 2.09375 -10.90625 3.1875 -11.625 C 4.289062 -12.34375 5.585938 -12.675781 7.078125 -12.625 C 8.003906 -12.625 9.03125 -12.414062 10.15625 -12 C 11.289062 -11.59375 12.4375 -11.207031 13.59375 -10.84375 C 14.75 -10.488281 15.835938 -10.398438 16.859375 -10.578125 C 17.890625 -10.765625 18.765625 -11.472656 19.484375 -12.703125 C 20.304688 -14.035156 20.421875 -15.226562 19.828125 -16.28125 C 19.234375 -17.332031 18.359375 -18.226562 17.203125 -18.96875 C 16.054688 -19.71875 14.992188 -20.328125 14.015625 -20.796875 C 10.109375 -22.691406 7.242188 -25.21875 5.421875 -28.375 C 3.597656 -31.53125 3 -35.316406 3.625 -39.734375 C 4.238281 -44.148438 6.007812 -47.960938 8.9375 -51.171875 C 11.863281 -54.378906 15.429688 -56.570312 19.640625 -57.75 C 21.691406 -58.363281 23.9375 -58.695312 26.375 -58.75 C 28.8125 -58.800781 30.976562 -58.238281 32.875 -57.0625 C 33.957031 -56.394531 34.78125 -55.484375 35.34375 -54.328125 C 35.90625 -53.171875 36.046875 -52.039062 35.765625 -50.9375 C 35.484375 -49.832031 34.546875 -49.023438 32.953125 -48.515625 C 31.304688 -47.992188 29.648438 -47.285156 27.984375 -46.390625 C 26.316406 -45.492188 24.84375 -44.453125 23.5625 -43.265625 C 22.28125 -42.085938 21.351562 -40.789062 20.78125 -39.375 C 20.21875 -37.96875 20.164062 -36.492188 20.625 -34.953125 C 21.09375 -33.410156 22.273438 -31.847656 24.171875 -30.265625 C 25.359375 -29.234375 26.566406 -28.296875 27.796875 -27.453125 C 29.023438 -26.609375 30.175781 -25.679688 31.25 -24.671875 C 32.332031 -23.671875 33.207031 -22.398438 33.875 -20.859375 C 34.75 -18.960938 35.222656 -16.894531 35.296875 -14.65625 C 35.378906 -12.425781 35.007812 -10.335938 34.1875 -8.390625 C 33.3125 -6.285156 32.078125 -4.617188 30.484375 -3.390625 C 28.898438 -2.160156 27.117188 -1.285156 25.140625 -0.765625 C 23.160156 -0.253906 21.117188 0 19.015625 0 C 16.910156 0 14.859375 -0.15625 12.859375 -0.46875 Z M 12.859375 -0.46875 "/></g></g></g></svg>